<?xml version="1.0" encoding="utf-8"?>
<!-- Generator: Adobe Illustrator 21.0.0, SVG Export Plug-In . SVG Version: 6.00 Build 0)  -->
<svg version="1.1" id="Calque_1" xmlns="http://www.w3.org/2000/svg" xmlns:xlink="http://www.w3.org/1999/xlink" x="0px" y="0px"
	 viewBox="0 0 330 330" style="enable-background:new 0 0 330 330;" xml:space="preserve">
<style type="text/css">
	.st0{fill:#2C2F3B;}
	.st1{fill:#9BE3F2;}
	.st2{fill:#9AE3F2;}
	.st3{fill:#9AE2F1;}
	.st4{fill:#9AE1F0;}
	.st5{fill:#9AE2F0;}
	.st6{fill:#9CE5F4;}
	.st7{fill:#2E333F;}
	.st8{fill:#2D323E;}
</style>
<g>
	<path class="st0" d="M330,149c0,11,0,22,0,33c-1,4.4-2.1,8.8-2.9,13.3c-10.9,63.5-62.9,117.5-126,130.7c-7,1.5-14.1,2.7-21.2,4
		c-10.7,0-21.3,0-32,0c-2.1-0.6-4.2-1.4-6.4-1.7c-68.5-10-122.7-60.4-137.7-128.1c-1.3-6-2.6-12.1-3.9-18.2c0-11.3,0-22.7,0-34
		c1.3-6.4,2.4-12.8,4-19.1C20.8,64.1,61.3,22.5,126,4.8c7.2-2,14.7-3.2,22-4.8c10.7,0,21.3,0,32,0c0.7,0.3,1.3,0.9,2,0.9
		c70,7,128.6,58.8,143.9,127.4C327.4,135.2,328.6,142.1,330,149z M61.4,215.6c-0.1-0.9-0.2-1.6-0.1-2.2c0.1-1,0.2-2,0.3-3
		c1.5-12.8,7.1-23.9,14.8-33.9c29.7-39,69.4-62.8,116.3-75.3c1.4-0.4,3.1-0.5,4.2-1.3c0.9-0.6,1.8-2.4,1.5-3.3
		c-0.4-1.1-1.8-2.3-3-2.7c-1.1-0.4-2.6,0.1-3.9,0.5c-46.4,12.2-85.9,35.5-116.6,72.7c-11.1,13.4-19.4,28.3-20.4,46.3
		c-0.2,3.2-0.8,5.4-3.4,7.7c-5.3,4.6-6.4,12-3.6,18.3c2.8,6.2,9.4,10.3,16.1,9.8c6.9-0.5,12.6-5.1,14.6-11.7
		C81.5,226.5,74.6,217.5,61.4,215.6z M250.5,241c0,0-0.8,0.6-1.7,0.9c-1.8,0.7-3.7,1.5-5.6,2c-16,4.4-32.1,3.1-47.9-0.6
		c-41.4-9.8-76.8-30.2-106.5-60.5c-1.8-1.9-3.8-4.6-6.6-1.9c-2.9,2.8-0.2,4.8,1.7,6.6c34.4,34.7,75.1,57.5,123.7,64.8
		c15.3,2.3,30.6,1.9,45.1-4.7c2.8-1.3,4.8-1.5,7.8-0.2c8.6,3.7,18.5-1.1,21.5-9.8c3-8.7-1.6-17.9-10.3-20.9
		c-8.8-3-18.6,1.8-20.9,10.9C249.7,231.7,250.5,236.1,250.5,241z M179.4,61.5c8.7,5.2,14.7,12.3,19.4,20.5
		c19.3,33.6,23.4,70.4,20.5,108.1c-1.1,14.3-5,28.4-7.4,42.7c-0.3,1.6,1.3,3.5,2,5.2c1.4-1,3-1.9,4.3-3.1c0.6-0.6,0.7-1.8,0.9-2.8
		c2.5-13.9,5.8-27.7,7.1-41.7c2.9-31.9-0.5-63.2-12.2-93.2C208,82,200.2,67.9,186.6,58.1c-3.3-2.4-5.6-4.7-6.6-9
		c-1.9-8.3-10.4-13.1-18.4-11.5c-8.8,1.8-14.6,9.7-13.5,18.2c1.1,8.5,8.3,14.6,17,14.4C171.4,70,175.7,66.5,179.4,61.5z M107.5,89.8
		c-5.4,0.5-9.9,0.7-14.3,1.3c-27.1,3.3-42.1,21.1-37.9,46c1.4,8.3,5.6,16.2,8.9,24.2c0.5,1.2,3.1,1.6,4.7,2.3
		c0.4-1.8,1.2-3.7,1.1-5.5c-0.1-1.4-1.4-2.6-1.9-4c-2.2-6.8-5.2-13.4-6.4-20.3c-2.9-16.7,7.7-30.1,26.5-34.6
		c12.7-3,25.5-2.4,38.2-0.2c2.4,0.4,5.7,0.9,5.6-2.8c0-1.4-2.7-3.6-4.4-3.9C120.5,91,113.6,90.5,107.5,89.8z M164.8,293.9
		c0.7,0,1.7,0,2.7-0.2c18.1-2.5,28.9-14.5,37.6-29.1c0.6-1-0.8-3-1.2-4.6c-1.8,0.8-4,1.1-5.2,2.4c-5,5.5-9.2,11.9-14.7,16.8
		c-11.5,10-25.3,10.6-37,1.3c-6.3-4.9-11.7-11.4-16.2-18c-4.5-6.7-7.1-14.6-10.9-21.8c-0.8-1.4-3.1-2.1-4.7-3.1
		c-0.6,1.7-2.1,3.7-1.7,4.9c5.5,15.3,12.8,29.6,25.3,40.6C146.1,289.7,154.6,293.6,164.8,293.9z M229.7,90.3c0,0.1,0,0.2-0.1,0.3
		c-1.3-0.1-2.8-0.6-3.9-0.2c-1.8,0.7-4.4,1.7-4.7,3.1c-0.8,3.1,1.9,3.6,4.4,3.8c2.8,0.2,5.6,0.4,8.5,0.7c28.1,2.9,40.7,22.7,30,48.7
		c-4.2,10.3-11.5,19.3-17.1,29.1c-0.9,1.6-0.5,4-0.7,6c2-0.5,4.7-0.5,5.7-1.7c9.1-10.7,16.6-22.5,20.6-36.2c7.3-25-3.8-44.5-29-51
		C238.9,91.7,234.3,91.1,229.7,90.3z M176.3,172.3c0.1-6.7-5.2-12.2-11.8-12.2c-6.4,0-11.7,5.2-11.8,11.7
		c-0.1,6.7,5.2,12.2,11.8,12.2C170.9,184,176.2,178.8,176.3,172.3z"/>
	<path class="st1" d="M61.4,215.6c13.2,1.9,20.1,11,16.8,21.6c-2.1,6.6-7.8,11.2-14.6,11.7c-6.6,0.5-13.3-3.6-16.1-9.8
		c-2.8-6.3-1.7-13.7,3.6-18.3c2.5-2.2,3.2-4.5,3.4-7.7c1-17.9,9.4-32.9,20.4-46.3c30.7-37.2,70.3-60.5,116.6-72.7
		c1.3-0.3,2.8-0.8,3.9-0.5c1.2,0.4,2.6,1.6,3,2.7c0.3,0.9-0.6,2.6-1.5,3.3c-1.1,0.8-2.8,1-4.2,1.3c-46.9,12.6-86.6,36.3-116.3,75.3
		c-7.6,10-13.3,21.1-14.8,33.9c-0.1,1-0.3,2-0.3,3C61.2,214,61.3,214.6,61.4,215.6z M72,232.6c0.1-5.3-4.1-9.6-9.3-9.7
		c-5.4-0.1-9.6,4-9.7,9.3c-0.1,5.2,4.1,9.6,9.3,9.7C67.5,242.1,71.9,237.8,72,232.6z"/>
	<path class="st2" d="M250.5,241c0-4.9-0.8-9.3,0.2-13.3c2.2-9.1,12-13.9,20.9-10.9c8.7,3,13.3,12.3,10.3,20.9
		c-3,8.7-12.9,13.5-21.5,9.8c-3-1.3-5-1.1-7.8,0.2c-14.5,6.6-29.8,7-45.1,4.7c-48.6-7.4-89.3-30.1-123.7-64.8
		c-1.8-1.8-4.5-3.9-1.7-6.6c2.8-2.7,4.7,0,6.6,1.9c29.7,30.3,65.2,50.8,106.5,60.5c15.9,3.7,31.9,5,47.9,0.6c1.9-0.5,3.8-1.3,5.6-2
		C249.7,241.6,250.5,241,250.5,241z M275.8,232.3c-0.1-5.2-4.4-9.4-9.7-9.3c-5.3,0.1-9.4,4.2-9.3,9.6c0.1,5.2,4.5,9.5,9.6,9.4
		C271.5,241.9,275.9,237.4,275.8,232.3z"/>
	<path class="st3" d="M179.4,61.5c-3.7,5-8,8.5-14.2,8.6c-8.7,0.2-15.9-5.9-17-14.4c-1.1-8.5,4.7-16.4,13.5-18.2
		c8-1.6,16.5,3.2,18.4,11.5c1,4.3,3.2,6.6,6.6,9c13.6,9.8,21.4,23.9,27.4,39.1c11.7,30,15.1,61.3,12.2,93.2
		c-1.3,14-4.7,27.8-7.1,41.7c-0.2,1-0.3,2.2-0.9,2.8c-1.3,1.2-2.8,2.1-4.3,3.1c-0.7-1.7-2.2-3.6-2-5.2c2.4-14.2,6.3-28.3,7.4-42.7
		c2.9-37.7-1.2-74.5-20.5-108.1C194.1,73.8,188.1,66.7,179.4,61.5z M174,53.8c0.1-5.2-4.2-9.6-9.4-9.7c-5.2-0.1-9.5,4.2-9.6,9.5
		c-0.1,5.3,4.1,9.5,9.4,9.6C169.7,63.2,173.9,59.1,174,53.8z"/>
	<path class="st4" d="M107.5,89.8c6.1,0.7,13.1,1.2,19.9,2.4c1.7,0.3,4.4,2.5,4.4,3.9c0.1,3.6-3.1,3.2-5.6,2.8
		c-12.8-2.2-25.5-2.8-38.2,0.2c-18.8,4.4-29.4,17.9-26.5,34.6c1.2,6.9,4.2,13.6,6.4,20.3c0.5,1.4,1.9,2.6,1.9,4
		c0.1,1.8-0.7,3.7-1.1,5.5c-1.6-0.7-4.2-1.1-4.7-2.3c-3.3-7.9-7.5-15.8-8.9-24.2c-4.2-24.9,10.9-42.7,37.9-46
		C97.6,90.5,102.1,90.3,107.5,89.8z"/>
	<path class="st5" d="M164.8,293.9c-10.2-0.3-18.7-4.2-26-10.6c-12.4-11-19.8-25.3-25.3-40.6c-0.5-1.3,1.1-3.3,1.7-4.9
		c1.6,1,3.9,1.6,4.7,3.1c3.8,7.2,6.4,15.1,10.9,21.8c4.5,6.7,9.9,13.1,16.2,18c11.7,9.3,25.5,8.7,37-1.3c5.6-4.8,9.7-11.3,14.7-16.8
		c1.2-1.3,3.5-1.7,5.2-2.4c0.4,1.6,1.8,3.6,1.2,4.6c-8.7,14.6-19.5,26.6-37.6,29.1C166.5,293.9,165.5,293.8,164.8,293.9z"/>
	<path class="st4" d="M229.7,90.3c4.6,0.8,9.2,1.4,13.7,2.6c25.2,6.5,36.3,26.1,29,51c-4,13.7-11.5,25.4-20.6,36.2
		c-1.1,1.3-3.8,1.2-5.7,1.7c0.2-2-0.2-4.4,0.7-6c5.6-9.8,12.9-18.8,17.1-29.1c10.7-26-2-45.8-30-48.7c-2.8-0.3-5.6-0.5-8.5-0.7
		c-2.5-0.2-5.2-0.7-4.4-3.8c0.3-1.4,3-2.4,4.7-3.1c1.1-0.4,2.6,0.1,3.9,0.2C229.7,90.5,229.7,90.4,229.7,90.3z"/>
	<path class="st6" d="M176.3,172.3c-0.1,6.5-5.3,11.7-11.8,11.7c-6.6,0-11.9-5.4-11.8-12.2c0.1-6.5,5.3-11.7,11.8-11.7
		C171.1,160.1,176.4,165.6,176.3,172.3z"/>
	<path class="st7" d="M72,232.6c-0.1,5.2-4.5,9.5-9.7,9.3c-5.2-0.1-9.4-4.5-9.3-9.7c0.1-5.3,4.3-9.3,9.7-9.3
		C68,223,72.1,227.3,72,232.6z"/>
	<path class="st7" d="M275.8,232.3c0.1,5.1-4.3,9.6-9.4,9.7c-5.1,0.1-9.5-4.2-9.6-9.4c-0.1-5.4,4-9.5,9.3-9.6
		C271.4,222.9,275.8,227.1,275.8,232.3z"/>
	<path class="st8" d="M174,53.8c-0.1,5.3-4.3,9.4-9.6,9.3c-5.3-0.1-9.5-4.3-9.4-9.6c0.1-5.2,4.5-9.5,9.6-9.5
		C169.8,44.2,174.1,48.6,174,53.8z"/>
</g>
</svg>
