<?xml version="1.0" encoding="utf-8"?>
<!-- Generator: Adobe Illustrator 21.0.0, SVG Export Plug-In . SVG Version: 6.00 Build 0)  -->
<svg version="1.1" id="Calque_1" xmlns="http://www.w3.org/2000/svg" xmlns:xlink="http://www.w3.org/1999/xlink" x="0px" y="0px"
	 viewBox="0 0 950.1 760.6" style="enable-background:new 0 0 950.1 760.6;" xml:space="preserve">
<style type="text/css">
	.st0{fill:#1A76D2;}
	.st1{fill:#FDC009;}
	.st2{fill:#FC3D03;}
	.st3{fill:#4CAE51;}
</style>
<g>
	<path class="st0" d="M719.3,93.6c17.7,14.8,33.1,31.9,47.1,50c28.7,37.1,49.6,78.3,62.7,123.4c0.5,1.6,1.9,3.1,3.2,4.1
		c51.1,35.3,86.4,82.4,105.3,141.5c12.3,38.4,15.3,77.9,9.5,117.9c-9.2,63.2-37.5,116.4-84.3,159.6c-38.6,35.6-84.1,58.2-136.2,66.4
		c-15.9,2.5-32.1,3.8-48.2,3.9c-66,0.4-132,0.2-197.9,0.2c-1.8,0-3.7-0.1-5.5-0.1c0-54,0-108-0.1-162c1.5-0.1,3-0.2,4.5-0.2
		c64.8,0,129.6,0.1,194.4-0.1c9.6,0,19.4-0.3,28.8-2.3c56.7-11.8,92.3-63.9,83.2-121.1c-6.7-42-41.5-77.6-83.3-85.2
		c-7.3-1.3-14.7-1.8-22-2.7c-0.1-0.5-0.3-0.8-0.3-1.1c0-6.7,0-13.3-0.1-20c-0.1-6.8,0.3-13.7-0.4-20.5
		c-4.4-37.1-17.2-71.1-40.5-100.5c-10.3-13-22.6-24.2-34-36.3c3-2.9,6.1-5.7,9-8.7c21.2-21.2,42.5-42.4,63.7-63.7
		C691.8,122,705.5,107.8,719.3,93.6z"/>
	<path class="st1" d="M107.8,706.4c-11.2-9.8-22.9-19.2-33.5-29.6c-15.7-15.4-28.8-32.9-39.5-52.3c-8.8-16.1-16.2-32.7-21.9-50.1
		C3.5,546-0.6,516.9,0.1,487.2c0.5-20.8,3-41.2,8.5-61.4c6.1-22.7,14.4-44.4,26.3-64.8c4.7-8,8.6-16.8,14.3-23.9
		c10.2-12.7,21-25.1,32.7-36.5c10.1-9.8,21.7-18,32.7-26.9c2-1.6,3.8-3.5,5.7-5.3c1.6-0.7,3.4-1.1,4.9-2.1
		c21-13.1,43.1-23.5,66.9-30.4c17.6-5,35.4-8.2,53.7-10c18.8-1.8,37.4-1,56.1,1.2c7,0.9,14.1,2,21.1,3c2.2,0.7,4.4,1.4,6.6,2.1
		c13.5,4.2,27.5,7.3,40.5,12.7c24.5,10.1,47.1,23.6,67.5,40.7c15.1,12.6,28.9,26.4,41.1,41.8c2.5,3.1,2.9,5.1-0.4,8.2
		c-10.7,10.2-21,21-31.4,31.5c-25.9,25.9-51.8,51.7-77.7,77.5c-1.5,1.5-3.1,2.7-4.9,4.3c-0.8-1.1-1.4-1.7-1.8-2.3
		c-0.5-0.8-0.9-1.7-1.4-2.6c-7.3-13.9-17.2-25.7-29.6-35.2c-18.4-14.1-39.4-21.5-62.6-21.2c-10.2,0.1-20.4,2.1-30.5,4.1
		c-10.2,2-18.9,7.6-27.8,13.1c-10.9,6.7-19.7,15.3-27.3,25.3c-9.7,12.7-15.7,27.1-18.7,43c-2.8,15-2.5,29.9,1,44.5
		c5.8,23.8,19.8,42.9,38.3,58.4c6.2,5.2,14,8.5,21,12.7c-24.3,24.4-48.6,48.8-72.9,73.2C137.2,676.9,122.5,691.6,107.8,706.4z"/>
	<path class="st2" d="M322.8,230.3c-7-1-14-2.2-21.1-3c-18.6-2.3-37.2-3-56.1-1.2c-18.3,1.7-36.1,4.9-53.7,10
		c-23.8,6.8-46,17.3-66.9,30.4c-1.5,0.9-3.2,1.4-4.9,2.1c8-29.7,20.1-57.6,35.6-84.2c26.2-45,60.3-82.9,102.3-113.7
		c29.4-21.6,61.4-38,95.7-50.1C406.2,2,460-3.6,515.1,2.2c49.6,5.2,96,20.4,139.4,44.7c23.3,13.1,45.3,28.2,64.8,46.7
		c-13.8,14.1-27.5,28.4-41.5,42.4c-21.1,21.3-42.4,42.5-63.7,63.7c-2.9,2.9-6,5.8-9,8.7c-2.4-1.7-4.8-3.5-7.1-5.2
		c-21.7-15.8-45.3-27.5-71.4-34.2c-27.6-7.1-55.5-8.6-83.6-4.2c-32,5-61.5,16.7-87.5,36C343.8,209.6,333.7,220.4,322.8,230.3z"/>
	<path class="st3" d="M107.8,706.4c14.7-14.8,29.4-29.5,44.1-44.3c24.3-24.4,48.6-48.8,72.9-73.2c20.9,9.1,42.9,9.1,65.1,9
		c56.9-0.3,113.8-0.1,170.7-0.1c4.8,0,9.6,0.3,14.5,0.5c0,54,0,108,0.1,162c-4.3,0-8.7,0.1-13,0.1c-65.1,0-130.3,0.2-195.4-0.1
		c-57.9-0.2-110.1-18.1-156.9-52C109.1,707.9,108.5,707.1,107.8,706.4z"/>
</g>
</svg>
