<?xml version="1.0" encoding="utf-8"?>
<!-- Generator: Adobe Illustrator 21.0.0, SVG Export Plug-In . SVG Version: 6.00 Build 0)  -->
<svg version="1.1" id="Calque_1" xmlns="http://www.w3.org/2000/svg" xmlns:xlink="http://www.w3.org/1999/xlink" x="0px" y="0px"
	 viewBox="0 0 334.7 384" style="enable-background:new 0 0 334.7 384;" xml:space="preserve">
<style type="text/css">
	.st0{fill:#009438;}
</style>
<g>
	<path class="st0" d="M169.6,384c-1.8,0-3.5,0-5.3,0c-0.9-0.7-1.7-1.4-2.6-1.9c-52-30-103.9-59.9-156-89.8c-4-2.3-5.8-5.3-5.8-9.9
		c0.1-60.2,0.1-120.4,0-180.7c0-4.4,1.7-7.2,5.5-9.4C34.4,75.7,63.2,59,92,42.4c24.4-14.1,48.7-28.2,73-42.4c1.5,0,3,0,4.5,0
		c1.3,0.7,2.6,1.5,3.9,2.2c51.6,29.8,103.3,59.6,155,89.4c4.4,2.5,6.3,5.7,6.3,10.9c-0.1,59.7-0.1,119.5,0,179.2
		c0,5.3-2,8.5-6.5,11.1c-28.3,16.2-56.4,32.6-84.6,48.8C218.9,355.7,194.2,369.9,169.6,384z M219.9,225.1c-1-1.2-1.4-1.7-1.8-2.1
		c-31-37.1-62-74.2-92.9-111.4c-6.6-7.9-14.4-13.2-24.6-15.2c-15.4-3-32.4,4.5-32.1,25.6c0.7,46.9,0.2,93.7,0.2,140.6
		c0,1.7,0,3.5,0.1,5.2c0.9,13.1,13.2,22,26,18.9c10.3-2.5,17-11.1,17-22.2c0.1-33.9,0-67.7,0-101.6c0-1.3,0-2.6,0-4.5
		c1.1,1.2,1.6,1.7,2,2.2c31,37.1,62,74.2,92.9,111.4c9.1,10.9,20.4,16.1,34.5,15.2c13.4-0.9,21.9-9.8,21.9-23.1
		c0-49.1,0-98.2,0-147.4c0-9-6.2-17.3-14.8-20c-14.9-4.6-28.5,5.4-28.6,21c-0.1,34.1,0,68.2,0,102.4
		C219.9,221.5,219.9,222.8,219.9,225.1z"/>
</g>
</svg>
