<?xml version="1.0" encoding="utf-8"?>
<!-- Generator: Adobe Illustrator 21.0.0, SVG Export Plug-In . SVG Version: 6.00 Build 0)  -->
<svg version="1.1" id="Calque_1" xmlns="http://www.w3.org/2000/svg" xmlns:xlink="http://www.w3.org/1999/xlink" x="0px" y="0px"
	 viewBox="0 0 163.9 94.8" style="enable-background:new 0 0 163.9 94.8;" xml:space="preserve">
<style type="text/css">
	.st0{fill:#02029F;}
</style>
<g>
	<path class="st0" d="M64.7,94.8c-15.4,0-30.7,0-45.9,0c-21.5-24.1-25-61.2-8-89.6c9.9,16.5,19.6,32.6,29.7,49.3
		C51.5,36.1,62.3,18.1,73.2,0c15.9,0,31.7,0,48.3,0C102.4,31.9,83.5,63.3,64.7,94.8z"/>
	<path class="st0" d="M145.5,94.8c-14.9,0-29.5,0-44.9,0c4.5-7.8,8.8-15.1,13.6-23.2c-6.2,0-11.7,0-18.2,0
		c7.5-12.7,14.5-24.5,21.5-36.5c6,0,11.9,0,18.4,0c5.7-9.7,11.4-19.4,17.2-29.1C168.4,28.6,168.8,67.6,145.5,94.8z"/>
</g>
</svg>
