<?xml version="1.0" encoding="utf-8"?>
<!-- Generator: Adobe Illustrator 21.0.0, SVG Export Plug-In . SVG Version: 6.00 Build 0)  -->
<svg version="1.1" id="Calque_1" xmlns="http://www.w3.org/2000/svg" xmlns:xlink="http://www.w3.org/1999/xlink" x="0px" y="0px"
	 viewBox="0 0 1044.2 1333.8" style="enable-background:new 0 0 1044.2 1333.8;" xml:space="preserve">
<style type="text/css">
	.st0{fill:#020101;}
	.st1{fill:#74A828;}
	.st2{fill:#BB1142;}
</style>
<g>
	<path class="st0" d="M217.4,381.4c-7-2.3-12.9-4.2-18.7-6.3c-11.6-4.2-20.1-11.7-23.9-23.7c-1-3.3-2.6-4.9-5.9-5.8
		c-4.1-1.2-8.2-2.9-12.1-4.6c-13.3-5.8-22.5-15.5-25.8-29.8c-1-4.4-3.6-6.7-6.8-9.2c-6.1-4.6-12.2-9.3-17.5-14.8
		c-7.4-7.6-12.1-16.8-12.1-27.7c0-3.8-1.4-6.1-4.2-8.3c-12.9-10.2-19.6-23.2-17.6-40.1c0.3-2.3-0.9-5-2.2-7.1
		c-2.2-3.7-5.2-6.9-7.6-10.5c-7.2-11.2-10-23.2-4.2-36.8c-14-16.9-18.6-35-3.6-52.4c-1.9-9-4.5-16.3-4.9-23.8
		c-0.9-15.8,8-27.8,23.3-31.7c6.4-1.6,13.1-1.7,19.8-2.1c3-0.2,5.6-0.1,7.9-2.9c10.3-12.5,24.6-16.3,40-17.4c3.3-0.2,6.7-0.4,10,0
		c5.9,0.6,10.6-0.4,15.1-5.1c6.4-6.6,15.3-7.7,24.2-7.2c7.8,0.4,14.4-0.7,21.4-5.4c11.5-7.7,24.8-7,37.6-2.7
		c7.1,2.4,12.9,2.5,19.5-1.9c7.2-4.9,15.7-5.1,24.1-2.4c4.1,1.3,8.2,2.7,12.1,4.5c7.4,3.4,14.4,5.4,23,2.8c9.9-3,19.8-0.5,28.6,5.3
		c6.3,4.1,12.4,6.2,20.5,4.7c12.4-2.3,23.7,1.8,33.1,10.4c2,1.8,4.1,3.5,5.7,5.6c5.1,6.6,11.2,10.1,19.8,8.2c4.6-1,8.4,1.1,12,3.6
		C466.3,59,480.7,75,492.7,93.3c10.8,16.5,19.1,34.3,25.7,52.9c1,2.7,1.9,5.5,3.4,9.8c1.8-4.6,3.3-7.9,4.5-11.2
		c9.8-27.6,23.2-53.1,43.2-74.7c7.4-8,16.3-14.7,24.5-21.9c4.7-4.1,10.2-6.2,16.6-5c6.1,1.1,11-0.6,14.8-5.8
		c1.9-2.7,4.6-4.8,7.1-7.1c10.4-9.8,22.8-13.6,36.8-11.2c4.9,0.9,9.2,0.7,13.2-2.2c12.2-8.5,25.3-11,39.9-6.8
		c2.8,0.8,6.5-0.3,9.5-1.3c5.7-1.9,11.1-4.5,16.7-6.6c10-3.6,19.9-2.9,28.7,3c4.7,3.1,8.6,3.4,13.8,1.6c8.8-3.1,18.1-5.1,27.5-2.9
		c4.8,1.1,10.1,2.2,13.9,5c6.1,4.5,12.2,5.7,19.4,5.2c12.2-1,23.2,2.2,31.3,12.5c23.1-1.2,45.8-0.7,61.7,19.5
		c6.9,0.4,13.7,0.2,20.1,1.4c23.6,4.4,34.6,22.5,26.6,45.1c-2.6,7.4-2.4,12.7,1.6,19.2c7.2,11.7,5.7,23.8-1.5,34.9
		c-4.2,6.5-6.5,12.1-3.9,20c2.3,7.1-0.7,14.4-3.9,21.2c-0.9,1.8-1.9,3.5-3,5.2c-8.1,13.2-8.5,14.3-10.1,29.5
		c-1.2,11.7-7.6,20.4-16.2,27.7c-2.8,2.4-5.4,4.4-5.4,8.8c0,13.6-7,24-16.6,32.9c-1.5,1.4-2.9,2.8-4.6,3.9
		c-9,5.5-15.2,12.5-18.4,23.3c-3.1,10.6-12.3,17.1-22.4,21.5c-5.5,2.4-11.1,4.4-17.1,6.7c-5,22.7-23.8,28.2-44,33.6
		c3.2,2.2,5.7,3.8,8,5.4c14,10.1,28.8,19.4,42,30.5c36.4,30.8,56.8,70.9,64,117.6c2.4,15.7,3,31.8,4.2,47.7
		c0.8,10.6,5.2,19.6,13.5,25.5c45.8,32.8,72,77.9,82.4,132.2c11.9,61.9-4.9,116.7-44.2,165.1c-4.2,5.1-6.2,10.5-7.9,16.8
		c-5.1,18.6-10.4,37.1-16.5,55.4c-5.1,15.1-9.7,30.3-13.2,45.9c-15.7,69.6-56.6,120.3-119.4,152.9c-14.3,7.4-27.8,15.4-40.7,24.7
		c-32.6,23.5-67.4,42.8-105,57c-4.2,1.6-8,4.6-11.2,7.8c-24.5,23.6-51.6,43.6-84,54.5c-82.1,27.5-157.1,13.8-223-43
		c-13.6-11.7-27.5-21.1-44.2-27.7c-30.2-11.9-57.7-28.8-84-47.8c-13.5-9.7-27.5-18.1-42.4-25.7c-53.6-27.2-91.2-69.6-111.7-126.3
		c-4.7-13.1-6.9-27-10.3-40.6c-1-3.9-1.8-7.8-3.2-11.5c-9.5-27-19.7-53.7-25.2-82c-0.7-3.6-3.6-7-6.1-10
		C26.9,879.8,11.4,851,4.5,818c-11-52.3-1.4-101.3,24.7-147.3c14.2-24.9,32.7-46,56.4-62.6c8.6-6.1,13.6-15.2,13.8-26.3
		c0.5-24.4,3-48.5,9.6-72.1c11.7-41.9,35.2-75.8,69.8-102c10.1-7.6,20.8-14.3,31.3-21.5C212.3,384.9,214.4,383.4,217.4,381.4z
		 M812.6,38.5c-3.3,0.3-6.6,0.1-9.8,0.8c-14,3.3-27.2,8.7-39.6,16.1c-2.2,1.3-4.6,2.3-6.8,3.4c-8.6-8.4-0.6-14.8,2.8-22.8
		c-18.8,6.2-32.2,18-45.6,29c-8.8-5.1-7.1-12.9-7.1-21.5c-15.1,8.2-26.2,19.4-36.3,31.4c-9.6-4.5-6.5-13.4-8-21.4
		c-17.2,11.8-27.3,29.1-42.8,42.6c-2.6-6.9-4.7-12.3-6.8-17.9c-1.5,1-2.4,1.4-3.1,2.1c-24.3,25.5-42.8,54.4-52.5,88.5
		c-4.2,14.5-5.8,29.3-2.4,44.4c5.5,24.4,21.2,39.7,43.3,49.9c75.7-61.9,161.3-104.2,252.7-135.3c-4.4,3-9.4,4.9-13.9,7.5
		c-35.7,20.7-71.7,41-106.8,62.7c-37.5,23.1-72.6,49.5-103.7,81c-6.2,6.3-6.7,11.8-3.7,19.4c11.3,28.5,32.8,46.3,60.3,57.7
		c30.1,12.5,61.9,15.1,94,15.6c1.7,0,3.4-0.9,5.5-1.6c-9.1-7.7-9.1-7.7-11.7-14.8c21.3-6.8,45.2-1.2,66.1-13.4
		c-5.8-3.2-12.5-3.7-14.5-11.4c6.2-2,12.2-3.7,18.1-6c11.8-4.6,23.4-9.4,35.1-14.3c1.8-0.8,3.1-2.7,5.9-5.1
		c-8.8-0.6-16.4,0.6-22.3-6.1c19.5-11.2,40.7-18.9,57.5-36c-8.6-1.4-16.5,0.6-23.7-4.6c16.2-11.6,32.2-22.2,46-38.2
		c-5.3,0-8.9,0.1-12.4,0c-3.6-0.1-7.1-0.6-10-4c12.8-14.3,29.9-24.3,38.5-43c-9.7,0.9-18.2,4.3-27-2.3
		c11.5-14.7,30.3-22.7,36.4-42.4c-4.9,0.5-8.8,1.2-12.7,1.4c-4.1,0.1-8.7,1.7-12.1-2.3c3-17.1,12.9-30.9,22.6-46.9
		c-8.3,0-14.5,0-20.8,0c-6.7,0-13.3,0.2-20-0.2c-6-0.3-12.3,1.2-18.9-2.1c4.6-5.1,8.7-9.6,13.4-14.8c-11.2-4-21.1-3.9-30.9-2.2
		c-10.5,1.8-20.8,4.4-31.1,7.1c-6.9,1.8-8.6-3.4-6.7-8c1-2.4,3-4.3,4.6-6.4c1.3-1.7,2.6-3.3,4.7-6.1c-19.7,1.5-36.8,7.8-54.2,12.6
		c-1.9-8.1-1.9-8.1,1.9-12.5c2.8-3.2,5.7-6.4,8.5-9.6c0.2-0.1,0.5-0.2,0.7-0.3c0.1-0.1,0.1-0.3,0.1-0.5
		C813,37.8,812.8,38.1,812.6,38.5z M340.5,44.4c-0.1-0.3-0.2-0.6-0.4-0.9c-0.1-0.1-0.5,0-0.7,0C339.8,43.8,340.2,44.1,340.5,44.4
		c0.1,2.3,0.1,4.6,0.2,6.9c0.2,5.7-1.7,10.3-7.4,13.8c-13.5-11.4-27-23.1-46-29.2c4.3,8.4,11.7,14.7,3.3,22.8
		c-9.3-4.5-18-9.2-27.1-13.1c-8.8-3.8-18-7.2-28.8-7.2c12.8,15.7,12.8,15.7,9,22c-16.8-5.4-33.7-11.1-53.5-12.6
		c3.7,4.4,6.7,7.1,8.6,10.5c1.3,2.3,1.9,6,1,8.3c-1.4,3.6-5.1,1.9-7.9,1.3c-10.1-2.3-20-5.1-30.2-6.7c-9.7-1.5-19.6-2-30.2,2.4
		c4.7,5.3,8.7,9.9,14.4,16.3c-21.2,0.3-40.2,0.7-60.9,1c9.9,16,20.4,29.8,22.4,49c-8.9-0.4-16.4-0.8-25.4-1.2c2.1,3.8,3.2,7,5.3,9.3
		c6,6.7,12.2,13.1,18.6,19.4c4.4,4.4,10,7.5,12.9,14c-8.6,5.9-17.4,2.1-27,1.9c5.2,9.8,11.9,16.6,18.6,23.5
		c6.5,6.8,15.2,11.5,20.9,21.5c-8,0.9-14.7,1.7-22.3,2.5c13.3,15.3,29.3,25.8,44.5,39.1c-7.2,1.1-14.3,2.1-22.9,3.4
		c17.4,16.3,38.2,24.7,57.8,35.5c-6.6,6.9-14.6,5.5-24.3,6.1c19.7,14.2,41.2,18.1,61,25.9c-2.9,7.1-8.9,8-14.3,10.7
		c4.7,4.4,10.3,5.7,15.7,6.5c11.5,1.8,23.1,2.8,34.7,4.2c5.1,0.6,10.1,1.7,15.4,2.6c-0.6,8.5-8.3,10.2-12.1,16
		c3.6,0.4,6.2,1.1,8.7,0.9c15.6-1.1,31.3-1.6,46.8-3.7c20.6-2.8,40.3-8.7,58.6-18.8c22.1-12.3,38.3-29.6,46.8-53.7
		c2.2-6.2,1.5-10.7-3.4-15c-13.4-12-26.1-24.8-40-36.2c-43.6-35.5-91.6-64.3-140.6-91.5c-15.1-8.4-30.4-16.4-45.6-24.6
		c92.2,30.7,178,73.4,253.3,135c26.4-12.5,42.4-31.6,44.6-60.3c0.7-9.5-0.5-19.4-2.7-28.7c-8.3-36.1-27.9-66-52.6-92.8
		c-1.2-1.3-3-1.9-4.8-2.9c-3.5,11.8-3.5,11.8-8.1,16.2c-14-12.9-24.2-29.7-41-41.2c-1.2,8.4,1.4,17-8,21.4c-2.1-2.4-4-4.6-6-6.8
		C361.8,58.8,353,49.2,340.5,44.4z M493.6,678.1c-1-9.6-1.5-19.3-3.2-28.7c-5.8-31.3-20.3-57.8-46-77.1
		c-36.9-27.8-77.9-31-120.4-16.5c-79.9,27.3-129.8,114.4-117.6,191.2c5.9,37.4,23.2,67.9,55.6,88.4c36.1,22.9,74.8,24,114.1,9.8
		C448.4,819.2,494,744.9,493.6,678.1z M839.8,716.9c-1.1-10.2-1.6-20.6-3.4-30.7c-13.5-74-75.7-136.6-146.5-144.6
		c-45.1-5.1-83,8.8-111.3,44.7c-25.2,32-31.3,69.4-25.4,108.7c6.9,46,29.3,83.9,64.8,113.7c30.4,25.5,65.4,39.4,105.6,37.8
		c29-1.2,54.6-11.4,75.7-31.5C827.4,788.3,839,754.9,839.8,716.9z M525,1106.7c27.6-0.1,52.5-5.8,75.8-18.6
		c42.4-23.3,69.5-58.3,74.9-106.8c5.5-49-12.4-90.3-51.1-120.5c-50.2-39.1-106.2-45.2-164.8-20.9c-49.9,20.8-91.2,71.9-85.6,138.1
		c2.9,34.5,17.7,63.4,42.6,86.7C447.1,1093.1,483.6,1106.5,525,1106.7z M919.4,979.4c-1-10.9-1.4-21.9-3.1-32.8
		c-2.6-16.5-7-32.5-15.5-47.2c-6.3-10.9-15.8-16.6-27.7-19.4c-15.9-3.8-30.4,0.7-44.5,7c-17.2,7.7-32.1,18.9-46.2,31.3
		c-33,28.8-61.1,61.3-77.4,102.7c-11.2,28.5-19.3,57.6-16.5,88.5c2.9,31.9,15.4,41.4,38.9,47.3c15.8,4,31.7,3.7,47.5,0.2
		c57.3-12.6,96.5-48.9,125.3-97.8C914.5,1035,918.7,1007.6,919.4,979.4z M121.1,972c2.5,15,4.1,30.3,7.6,45.1
		c14.1,58.9,49.6,100.7,104.1,126.3c22.6,10.6,46.7,15,71.9,11.1c21.8-3.4,34.2-14.1,39.4-35.4c0.2-1,0.4-2,0.6-2.9
		c4.6-22.5,0.9-44.4-5.3-66C321,987,279.8,942.9,222.7,912.4c-15.1-8.1-31.4-13-48.9-12.1c-27.6,1.4-37.9,12.5-45.3,32.3
		C123.9,945.2,122.2,958.4,121.1,972z M526.8,534.9c28.5,0.5,57-3.5,84.3-14.5c13.4-5.4,25.8-12.5,35.5-23.5
		c14.7-16.6,17.9-35.1,6.5-55.2c-3.4-6-7.7-11.8-12.6-16.7c-32-32.2-71.4-48.1-116.3-50.3c-27.8-1.3-54.2,5.7-78.9,18.4
		c-18.8,9.7-35.9,21.6-49.3,38.4c-14.9,18.7-15.3,35.5-1.3,54.7c10.1,13.9,23.9,23,39.1,30.2C463,530.4,494,535.6,526.8,534.9z
		 M526.2,1150.4c-19-0.9-41.4,1.9-63.6,6.3c-22.2,4.4-44.1,10.4-63.9,21.8c-6.8,3.9-13.4,8.8-18.9,14.5c-7.4,7.7-7.9,17.5-2.2,26.6
		c3.1,5,6.9,9.8,11,14.1c20.9,22.3,46.3,37.8,74.7,48.4c22.4,8.4,45.7,11.7,69.6,9.6c35.5-3.2,66.7-17.4,95-38.4
		c13.7-10.2,26.1-21.8,35-36.5c9.3-15.5,7.5-27-7.6-36.8c-9.7-6.3-20.3-11.5-31.2-15.3C593.7,1154,562.1,1149.9,526.2,1150.4z
		 M988.2,769.7c0-3.7,0.2-7.3-0.1-11c-0.2-3.6-0.9-7.3-1.4-10.9c-6.7-50.2-32.4-88-75.1-114.5c-9.5-5.9-19-4.1-25.3,5.2
		c-3.3,4.9-5.8,10.5-7.6,16.1c-4.7,14.4-5.7,29.5-5.8,44.4c-0.3,35.8,4.2,71.1,12.6,105.8c5,20.8,11.2,41.2,21.3,60.1
		c4.1,7.6,8.8,15,16.4,19.8c7.8,4.9,12.8,4.6,19.8-1.4c2.8-2.4,5.4-5,7.8-7.7C977.4,845.3,987.4,809.1,988.2,769.7z M156.5,711.5
		c0-9.3,0.5-18.7-0.1-28c-0.9-13-3.2-25.8-9.4-37.5c-7.2-13.6-19.5-14.9-30.1-7.9c-19.2,12.6-36.3,27.4-48.5,46.9
		C34,740.5,34,797.5,62.6,855.2c6.1,12.3,14.4,23.2,25,32.1c7.4,6.2,13.4,6.6,20.6,0.4c5-4.3,9.5-9.4,12.9-15
		c4.5-7.3,8.3-15.2,11.3-23.3C149.1,804.9,156.5,758.8,156.5,711.5z M142.7,567.5c0,3.9,0,5.9,0,7.9c0.1,12,3.9,15,15.5,11.3
		c6.6-2.2,13.1-5,19.2-8.3c22.6-12.3,43.1-27.8,63.1-43.9c33.8-27.2,66.5-55.7,95-88.5c7.8-9,14.7-19,20.7-29.2
		c4.8-8,2.6-11.1-6.5-12.8c-23.9-4.2-47.7-4-71.5,0.4c-41.2,7.6-75.8,26.6-101.5,60.3C153.1,495.7,144,531.3,142.7,567.5z M887,569
		c0.3-0.1,0.6-0.1,1-0.2c-1.8-12.5-2.8-25.2-5.7-37.4c-13.1-55.5-45.8-94.5-99.5-114.9c-31.4-12-64.1-14.1-97.3-9.9
		c-15,1.9-17.6,5.7-8.6,19.4c8.6,13,18.7,25.1,29.4,36.5c29,30.9,60.7,58.9,94.6,84.3c18.3,13.7,38,25.7,57.4,38
		c5.2,3.3,11.6,5.2,17.6,6.7c7.1,1.8,10.7-1.2,11.1-8.6C887.2,578.3,887,573.7,887,569z"/>
	<path class="st1" d="M340.5,44.4c12.5,4.9,21.3,14.4,30.3,23.8c2,2.1,3.9,4.4,6,6.8c9.4-4.4,6.8-13,8-21.4
		c16.8,11.6,27,28.3,41,41.2c4.6-4.4,4.6-4.4,8.1-16.2c1.7,1,3.6,1.7,4.8,2.9c24.7,26.9,44.3,56.8,52.6,92.8
		c2.1,9.3,3.4,19.2,2.7,28.7c-2.1,28.6-18.1,47.7-44.6,60.3c-75.3-61.6-161.2-104.3-253.3-135c15.2,8.2,30.5,16.2,45.6,24.6
		c49,27.3,97,56.1,140.6,91.5c13.9,11.3,26.6,24.2,40,36.2c4.9,4.4,5.6,8.9,3.4,15c-8.6,24.2-24.7,41.5-46.8,53.7
		c-18.3,10.2-38.1,16-58.6,18.8c-15.5,2.1-31.2,2.6-46.8,3.7c-2.5,0.2-5.1-0.5-8.7-0.9c3.8-5.8,11.4-7.4,12.1-16
		c-5.2-0.9-10.3-1.9-15.4-2.6c-11.5-1.5-23.2-2.4-34.7-4.2c-5.4-0.8-11-2.1-15.7-6.5c5.4-2.7,11.4-3.6,14.3-10.7
		c-19.8-7.8-41.3-11.7-61-25.9c9.7-0.6,17.7,0.8,24.3-6.1c-19.6-10.7-40.4-19.2-57.8-35.5c8.5-1.3,15.7-2.3,22.9-3.4
		c-15.2-13.2-31.2-23.8-44.5-39.1c7.6-0.9,14.3-1.6,22.3-2.5c-5.6-10-14.4-14.7-20.9-21.5c-6.7-6.9-13.4-13.7-18.6-23.5
		c9.6,0.2,18.5,3.9,27-1.9c-2.9-6.5-8.5-9.7-12.9-14c-6.3-6.3-12.6-12.7-18.6-19.4c-2.1-2.3-3.2-5.5-5.3-9.3
		c9,0.4,16.5,0.8,25.4,1.2c-2-19.2-12.4-33-22.4-49c20.7-0.3,39.7-0.6,60.9-1c-5.7-6.5-9.7-11-14.4-16.3c10.6-4.4,20.5-3.8,30.2-2.4
		c10.2,1.5,20.1,4.4,30.2,6.7c2.8,0.6,6.5,2.3,7.9-1.3c0.9-2.3,0.3-6-1-8.3c-1.8-3.4-4.8-6.1-8.6-10.5c19.7,1.5,36.6,7.2,53.5,12.6
		c3.8-6.3,3.8-6.3-9-22c10.8,0,19.9,3.4,28.8,7.2c9.1,3.9,17.9,8.6,27.1,13.1c8.4-8,1.1-14.4-3.3-22.8c19.1,6.2,32.5,17.8,46,29.2
		c5.6-3.5,7.6-8.1,7.4-13.8C340.6,49,340.6,46.7,340.5,44.4L340.5,44.4z"/>
	<path class="st1" d="M812.5,38.3c-2.8,3.2-5.7,6.3-8.5,9.6c-3.8,4.4-3.8,4.4-1.9,12.5c17.4-4.8,34.5-11.1,54.2-12.6
		c-2.2,2.8-3.5,4.5-4.7,6.1c-1.6,2.1-3.6,4.1-4.6,6.4c-1.9,4.5-0.2,9.7,6.7,8c10.3-2.6,20.6-5.3,31.1-7.1c9.8-1.7,19.8-1.8,30.9,2.2
		c-4.7,5.2-8.8,9.7-13.4,14.8c6.6,3.2,12.9,1.8,18.9,2.1c6.7,0.3,13.3,0.2,20,0.2c6.2,0,12.5,0,20.8,0c-9.7,16-19.7,29.8-22.6,46.9
		c3.4,4,8,2.5,12.1,2.3c3.9-0.1,7.9-0.8,12.7-1.4c-6.2,19.7-25,27.7-36.4,42.4c8.8,6.6,17.3,3.2,27,2.3c-8.5,18.7-25.7,28.7-38.5,43
		c2.9,3.4,6.4,3.9,10,4c3.5,0.1,7.1,0,12.4,0c-13.8,16-29.8,26.6-46,38.2c7.2,5.2,15.1,3.2,23.7,4.6c-16.8,17.1-38,24.9-57.5,36
		c6,6.7,13.6,5.5,22.3,6.1c-2.8,2.5-4.1,4.4-5.9,5.1c-11.6,4.9-23.3,9.7-35.1,14.3c-5.8,2.3-11.9,4-18.1,6c2,7.7,8.7,8.2,14.5,11.4
		c-20.9,12.2-44.8,6.7-66.1,13.4c2.6,7.1,2.6,7.1,11.7,14.8c-2.1,0.6-3.8,1.6-5.5,1.6c-32.1-0.4-63.9-3-94-15.6
		c-27.5-11.5-49-29.2-60.3-57.7c-3-7.6-2.5-13.1,3.7-19.4c31.1-31.5,66.3-57.9,103.7-81c35.1-21.7,71.1-41.9,106.8-62.7
		c4.5-2.6,9.5-4.5,13.9-7.5c-91.4,31.1-176.9,73.3-252.7,135.3c-22.2-10.2-37.8-25.5-43.3-49.9c-3.4-15.1-1.7-29.9,2.4-44.4
		c9.8-34,28.3-63,52.5-88.5c0.7-0.7,1.6-1.1,3.1-2.1c2.1,5.6,4.2,11,6.8,17.9c15.5-13.5,25.6-30.8,42.8-42.6
		c1.5,8.1-1.6,16.9,8,21.4c10.1-12,21.2-23.1,36.3-31.4c-0.1,8.5-1.7,16.3,7.1,21.5c13.4-11,26.7-22.8,45.6-29
		c-3.3,8.1-11.3,14.4-2.8,22.8c2.3-1.1,4.6-2.1,6.8-3.4c12.4-7.4,25.6-12.8,39.6-16.1c3.2-0.7,6.5-0.6,9.8-0.8L812.5,38.3z"/>
	<path class="st2" d="M493.6,678.1c0.3,66.8-45.2,141.1-117.5,167.2c-39.3,14.2-77.9,13-114.1-9.8c-32.4-20.5-49.7-51-55.6-88.4
		c-12.2-76.8,37.7-164,117.6-191.2c42.5-14.5,83.5-11.3,120.4,16.5c25.6,19.3,40.1,45.8,46,77.1
		C492.2,658.9,492.6,668.5,493.6,678.1z"/>
	<path class="st2" d="M839.8,716.9c-0.8,38-12.5,71.4-40.4,98c-21.2,20.1-46.7,30.3-75.7,31.5c-40.2,1.6-75.2-12.3-105.6-37.8
		c-35.5-29.8-57.9-67.8-64.8-113.7c-5.9-39.3,0.1-76.7,25.4-108.7c28.3-35.9,66.2-49.8,111.3-44.7c70.7,8,132.9,70.6,146.5,144.6
		C838.3,696.3,838.7,706.7,839.8,716.9z"/>
	<path class="st2" d="M525,1106.7c-41.3-0.2-77.9-13.6-108.1-41.9c-25-23.3-39.7-52.2-42.6-86.7c-5.6-66.2,35.7-117.3,85.6-138.1
		c58.5-24.4,114.5-18.3,164.8,20.9c38.7,30.2,56.6,71.5,51.1,120.5c-5.4,48.5-32.5,83.5-74.9,106.8
		C577.5,1100.9,552.6,1106.6,525,1106.7z"/>
	<path class="st2" d="M919.4,979.4c-0.6,28.1-4.8,55.5-19.2,79.9c-28.8,48.9-68,85.2-125.3,97.8c-15.8,3.5-31.7,3.7-47.5-0.2
		c-23.5-5.9-36.1-15.3-38.9-47.3c-2.8-30.9,5.3-60,16.5-88.5c16.3-41.5,44.4-73.9,77.4-102.7c14.1-12.3,29-23.6,46.2-31.3
		c14.1-6.3,28.6-10.8,44.5-7c11.9,2.8,21.4,8.6,27.7,19.4c8.5,14.7,12.9,30.7,15.5,47.2C917.9,957.5,918.4,968.5,919.4,979.4z"/>
	<path class="st2" d="M121.1,972c1.2-13.7,2.9-26.8,7.5-39.5c7.3-19.7,17.7-30.8,45.3-32.3c17.5-0.9,33.8,4,48.9,12.1
		c57,30.4,98.3,74.5,116.6,137.8c6.2,21.5,9.9,43.5,5.3,66c-0.2,1-0.3,2-0.6,2.9c-5.1,21.2-17.6,32-39.4,35.4
		c-25.2,3.9-49.3-0.5-71.9-11.1c-54.5-25.5-90-67.3-104.1-126.3C125.2,1002.3,123.6,987.1,121.1,972z"/>
	<path class="st2" d="M526.8,534.9c-32.8,0.7-63.8-4.5-92.9-18.4c-15.2-7.2-29-16.4-39.1-30.2c-14-19.1-13.6-36,1.3-54.7
		c13.4-16.8,30.5-28.7,49.3-38.4c24.7-12.7,51.1-19.7,78.9-18.4c44.9,2.2,84.3,18.1,116.3,50.3c4.9,4.9,9.1,10.7,12.6,16.7
		c11.4,20.1,8.2,38.6-6.5,55.2c-9.7,10.9-22.1,18.1-35.5,23.5C583.8,531.4,555.3,535.4,526.8,534.9z"/>
	<path class="st2" d="M526.2,1150.4c36-0.5,67.5,3.6,98,14.3c10.9,3.8,21.5,9,31.2,15.3c15.1,9.8,16.9,21.3,7.6,36.8
		c-8.9,14.8-21.3,26.4-35,36.5c-28.3,21-59.5,35.2-95,38.4c-23.9,2.2-47.2-1.2-69.6-9.6c-28.4-10.6-53.8-26.1-74.7-48.4
		c-4.1-4.3-7.8-9.1-11-14.1c-5.7-9.1-5.3-18.9,2.2-26.6c5.4-5.7,12-10.6,18.9-14.5c19.8-11.4,41.7-17.3,63.9-21.8
		C484.7,1152.3,507.2,1149.5,526.2,1150.4z"/>
	<path class="st2" d="M988.2,769.7c-0.8,39.4-10.8,75.6-37.3,106c-2.4,2.7-5,5.3-7.8,7.7c-7.1,6-12,6.3-19.8,1.4
		c-7.6-4.8-12.3-12.2-16.4-19.8c-10.2-18.9-16.4-39.3-21.3-60.1c-8.4-34.8-12.9-70.1-12.6-105.8c0.1-15,1.1-30,5.8-44.4
		c1.8-5.6,4.3-11.2,7.6-16.1c6.3-9.3,15.7-11.2,25.3-5.2c42.7,26.6,68.4,64.3,75.1,114.5c0.5,3.6,1.2,7.2,1.4,10.9
		C988.4,762.4,988.2,766.1,988.2,769.7z"/>
	<path class="st2" d="M156.5,711.5c0,47.3-7.3,93.4-24,137.8c-3,8.1-6.8,16-11.3,23.3c-3.4,5.6-8,10.8-12.9,15
		c-7.2,6.2-13.2,5.8-20.6-0.4c-10.7-8.8-18.9-19.8-25-32.1C34,797.5,34,740.5,68.4,685.1c12.1-19.5,29.3-34.3,48.5-46.9
		c10.6-7,22.9-5.7,30.1,7.9c6.2,11.7,8.5,24.5,9.4,37.5C157,692.9,156.5,702.2,156.5,711.5z"/>
	<path class="st2" d="M142.7,567.5c1.3-36.2,10.4-71.8,34-102.7c25.7-33.7,60.3-52.7,101.5-60.3c23.8-4.4,47.7-4.6,71.5-0.4
		c9.1,1.6,11.3,4.7,6.5,12.8c-6.1,10.2-12.9,20.2-20.7,29.2c-28.5,32.8-61.1,61.3-95,88.5c-20,16.1-40.5,31.5-63.1,43.9
		c-6.1,3.3-12.6,6.2-19.2,8.3c-11.5,3.8-15.3,0.8-15.5-11.3C142.7,573.4,142.7,571.4,142.7,567.5z"/>
	<path class="st2" d="M887,569c0,4.7,0.2,9.3,0,14c-0.4,7.4-3.9,10.4-11.1,8.6c-6.1-1.6-12.4-3.4-17.6-6.7
		c-19.4-12.2-39-24.3-57.4-38c-33.9-25.3-65.6-53.4-94.6-84.3c-10.7-11.4-20.8-23.5-29.4-36.5c-9-13.6-6.4-17.4,8.6-19.4
		c33.2-4.3,65.8-2.1,97.3,9.9c53.6,20.4,86.3,59.4,99.5,114.9c2.9,12.2,3.8,24.9,5.7,37.4C887.6,568.9,887.3,569,887,569z"/>
	<path class="st1" d="M812.6,38.5c0.2-0.3,0.4-0.6,0.6-0.9c0,0.2,0,0.4-0.1,0.5c-0.2,0.2-0.5,0.2-0.7,0.3
		C812.5,38.3,812.6,38.5,812.6,38.5z"/>
	<path class="st1" d="M340.5,44.4c-0.3-0.3-0.7-0.6-1-0.9c0.2,0,0.6-0.1,0.7,0C340.4,43.7,340.4,44.1,340.5,44.4
		C340.5,44.4,340.5,44.4,340.5,44.4z"/>
</g>
</svg>
