<?xml version="1.0" encoding="utf-8"?>
<!-- Generator: Adobe Illustrator 21.0.0, SVG Export Plug-In . SVG Version: 6.00 Build 0)  -->
<svg version="1.1" id="Calque_1" xmlns="http://www.w3.org/2000/svg" xmlns:xlink="http://www.w3.org/1999/xlink" x="0px" y="0px"
	 viewBox="0 0 114.1 113.5" style="enable-background:new 0 0 114.1 113.5;" xml:space="preserve">
<style type="text/css">
	.st0{fill:#FFFFFF;stroke:#000000;stroke-miterlimit:10;}
	.st1{fill:#090807;}
	.st2{fill:#FBAE3A;}
</style>
<g>
	<path class="st0" d="M18.3,110.3h78c6.6,0,12-5.4,12-12v-27c0-6.6-5.4-12-12-12h-78c-6.6,0-12,5.4-12,12v27
		C6.3,104.8,11.6,110.3,18.3,110.3z"/>
	<path class="st1" d="M16.2,39.4c-5.4-8.7-5.3-16,0.3-22.2c5.8-6.4,13.2-6.9,23.5-1.7C43.9,4.4,49.6-0.5,57.9,0
		c8.3,0.6,13.5,5.6,16,15.7c8.7-5.6,17.2-6.1,24.3,2.3c5.2,6.1,4.9,12.6-0.2,21.3c0.3,0.3,0.7,0.8,1.1,0.8
		c9.6,1.4,14.6,8.3,14.9,18.3c0.3,12.6,0.2,25.3,0,38c-0.2,9.8-7.3,16.9-17.2,17c-26.5,0.1-52.9,0.1-79.4,0c-9.9,0-17-7.2-17.1-17
		c-0.2-12.7-0.3-25.3,0-38C0.5,49,5,41.8,15.3,40.1C15.4,40.1,15.6,39.8,16.2,39.4z M8.6,56.3c32.4,0,64.9,0,97.3,0
		c-0.2-1-1.1-3.9-3.8-5.9c-3.3-2.4-8.1-2.4-12,0c-5.9,0-11.8-0.1-17.8-0.1c3.5-3.6,6.5-6.6,9.5-9.7c1.8-1.8,3.6-3.2,6.2-4
		c1.8-0.5,3.3-1.5,4.3-2.8c2.3-2.8,1.7-6.7,1.7-6.9c-0.7-3.9-4.1-6.8-7.7-7.3c-0.6-0.1-3.1-0.4-5.3,1c-1.7,1.1-1.9,2.4-4,5.8
		c-1.3,2.1-2.5,3.6-3.4,4.8c-3.4,4.4-6.5,6.9-7.3,7.5c-1.3,1.1-2.5,1.8-3.3,2.3c-0.1-5.8-0.3-11.7-0.4-17.5c2.6-3.1,3.5-7,2.3-10.1
		c-0.8-1.9-2.2-3.1-2.7-3.5c-0.6-0.5-3-2.4-6.3-2c-2.2,0.3-3.7,1.5-4.4,2c-0.4,0.3-1.9,1.7-2.7,3.9c-1.6,4.7,2,9,2.2,9.3
		c-0.1,5.8-0.1,11.6-0.2,17.4c-0.4,0-0.9,0-1.6-0.1c-3-0.4-5-2.7-8.3-7.1c-4-5.6-3.4-5.8-5.5-8c-2.4-2.6-5.1-5.3-8.5-5
		c-3.3,0.3-6.5,3.4-6.8,6.5c-0.3,3.2,2.8,5.5,8.3,10.3c3.6,3.1,8.6,7.6,14.3,13.5c-6.4,0.1-12.9,0.1-19.3,0.2
		c-2.7-2.4-6.5-3.1-9.7-1.8C9.4,51,8.7,56,8.6,56.3z M84.3,100.7c-0.8-0.3-2.1-1-3-2.3c-1.1-1.6-1-3.3-1-4.9c0.2-5.5,0-11,0.1-16.5
		c0-1.2,0-2.1,0-2.7c0-0.2,0.3-3.6,3.5-5.2c2.9-1.5,5.6,0,5.9,0.1c2.9,1.6,3.2,4.9,3.3,5.1c2.8,0,5.2,0,7.7,0
		c0.6-4.7-2.1-9.3-6.2-12.1c-4.6-3.1-10.4-3.1-14.8-0.7c-4.6,2.4-7.6,7.2-7.8,12.5l0,0l0,0l0,0c-0.1,7.3-0.2,14.6,0.1,22
		c0.2,7.2,5.9,13,12.8,13.7c7.6,0.7,14.6-4,15.9-11.3c1-5.8,0.3-11.8,0.4-17.6c-5.3,0-14.5,0-14.5,0l0.1,8.5c1,0,2,0,3,0
		c1.1,0,2.1,0,3.2,0.1c1.4,4.8-0.2,9.4-3.3,11C87.5,101.4,85.3,101,84.3,100.7z M13.5,95.6c0.6,10.4,9.8,16.7,19.2,13.4
		c6.2-2.2,9.9-7.6,9.7-14.2c-0.2-6.3-4-11.4-10.2-13.2c-2.1-0.6-4.2-0.8-6.3-1.5c-2.9-1-4.2-3.1-4-6.1c0.2-2.4,1.9-4.5,4-5.2
		c2.6-0.8,5.5,0.2,7,2.6c0.6,1,0.9,2.1,1.3,3c2.8,0,5.4,0,8,0c-0.5-8.3-6.1-14.1-13.8-14.5c-7.3-0.4-14.2,5.4-15.2,13.1
		c-1,7.2,3.9,14,11.5,15.8c1.8,0.4,3.6,0.6,5.3,1.2c4.4,1.7,5.2,7.2,1.5,10.1c-1.1,0.9-2.6,1.2-3.3,1.5c-4.2-0.5-6-2.7-6.7-5.8
		C18.7,95.6,16.1,95.6,13.5,95.6z M51.1,60c-3,0-5.6,0-8.6,0c3.5,16.8,6.9,33.1,10.3,49.6c3.1,0,5.8,0,8.8,0
		C65,93,68.4,76.6,71.9,60c-3.2,0-5.8,0-8.6,0c-1.9,9.1-3.8,18-5.6,27c-0.3,0-0.5,0-0.8,0.1C54.9,77.9,53,68.9,51.1,60z"/>
	<path class="st2" d="M8.2,56.4c2-8.8,7.4-10.8,15.6-6.1c5.7,0,11.3,0,18.2,0c-6.1-4.9-9.2-11.6-16.4-13.8c-4.1-1.2-6.1-5.1-5.5-9.5
		c0.4-3.6,3.6-6.8,7.1-7.4c4.3-0.7,8.6,1.2,9.6,5.2c0.9,3.5,3.1,5.8,5.5,8.1s4.7,4.7,7.1,7c0.2,0.2,0.6,0.2,1.2,0.4
		c0-5.6,0-11.2,0-17.2c-3.3-6-3.2-10,0.8-13.4c3.4-2.9,8-2.9,11.4,0c3.9,3.3,4.1,7.4,0.6,13.8c0,5.6,0,11.1,0,17.1
		c1.2-0.9,2.1-1.4,2.9-2.1c2.5-2.4,5.1-4.8,7.4-7.4c1.4-1.6,2.5-3.4,3.3-5.4c1.7-4.4,4.9-6.7,9.6-6.2c3.9,0.4,7.2,3.5,7.7,7.4
		c0.6,4.6-1.5,8.4-6,9.7c-2.6,0.7-4.4,2.2-6.2,4c-3,3.1-6,6.1-9.5,9.7c6.4,0,11.8,0,17.6,0c8.9-4.5,13.8-2.8,15.9,6.1
		C73.3,56.4,40.8,56.4,8.2,56.4z"/>
</g>
</svg>
