<?xml version="1.0" encoding="utf-8"?>
<!-- Generator: Adobe Illustrator 21.0.0, SVG Export Plug-In . SVG Version: 6.00 Build 0)  -->
<svg version="1.1" id="Calque_1" xmlns="http://www.w3.org/2000/svg" xmlns:xlink="http://www.w3.org/1999/xlink" x="0px" y="0px"
	 viewBox="0 0 138.6 232" style="enable-background:new 0 0 138.6 232;" xml:space="preserve">
<style type="text/css">
	.st0{fill:#47B39D;}
	.st1{fill:#17A085;}
</style>
<g>
	<path class="st0" d="M69.5,21.1c10.7,9.2,21.4,18.4,32.1,27.7c11.3,9.8,22.5,19.8,33.7,29.8c1.4,1.2,3,3.2,3,4.7
		c-0.3,16.6,0.6,33.5-1.7,49.8c-4.4,31.7-21.4,57.3-43.9,79.4c-7.2,7.1-15.5,13-23.2,19.5C69.5,161.7,69.5,91.4,69.5,21.1z
		 M86,174.3c0.4,0.1,0.8,0.1,1.2,0.2c0.4-0.5,0.8-1,1.1-1.5c7.4-12.4,14.9-24.8,22.2-37.3c0.7-1.2,1.1-2.8,1.1-4.2
		c0.1-16,0-31.9,0-47.9c0-0.8-0.3-1.5-0.4-2.2c-8.4,0-16.5,0-24.5,0c0,5.6,0,10.8,0,16.2c1.7-0.6,3-1.1,4.7-1.6
		c-4.5,7-8.8,13.6-13,20.3c0.4,0.3,0.8,0.6,1.2,0.9c1.9-1.4,3.7-2.8,6.5-4.9C86,133.6,86,154,86,174.3z"/>
	<path class="st1" d="M69.5,21.1c0,70.3,0,140.6,0,210.9c-1-0.5-2.2-0.7-3-1.4c-25.8-19.6-46.8-43.2-58.2-73.8
		c-4.2-11.2-6.4-23.4-7.6-35.4c-1.3-12.3-0.4-24.9-0.3-37.4c0-1.6,0.9-3.6,2-4.7C24.2,60.1,46,40.8,67.9,21.6
		C68.3,21.3,69,21.3,69.5,21.1z M43.8,152.3c-0.3-0.3-0.6-0.6-0.9-0.9c5.4-5.3,10.6-10.7,14.2-18.1c-2,0.3-3.2,0.4-4.9,0.7
		c0-17.8,0-35.2,0-52.6c-8.6,0-16.7,0-25.2,0c-0.1,1.8-0.2,3.5-0.2,5.1c0,20.1,0,40.3,0,60.4c0,3.1,0.3,6.3,0.8,9.4
		c2.1,12.1,12.3,20.5,24.4,20c0-9,0-17.9,0-27.1C49.1,150.4,46.4,151.3,43.8,152.3z"/>
	<path class="st1" d="M69.6,10.1C57.8,20.4,45.9,30.6,34.2,40.9c-11,9.6-22,19.3-33.4,29.4c-0.9-5.9-1-10.2,4-14.5
		C25.2,38.3,45.3,20.3,65.6,2.5c1.2-1,2.7-1.7,4-2.5C69.6,3.4,69.6,6.7,69.6,10.1z"/>
	<path class="st0" d="M69.6,10.1c0-3.4,0-6.7,0-10.1C80.3,9.2,91,18.4,101.7,27.7c10.7,9.3,21.3,18.7,31.8,28.1
		c5.8,5.1,5.7,5.2,4.3,14.6C114.8,50.1,92.2,30.1,69.6,10.1z"/>
	<path class="st1" d="M43.8,152.3c-0.7,0.2-1.4,0.3-2,0.5c0.4-0.5,0.8-0.9,1.1-1.4C43.2,151.7,43.5,152,43.8,152.3z"/>
</g>
</svg>
