<?xml version="1.0" encoding="utf-8"?>
<!-- Generator: Adobe Illustrator 21.0.0, SVG Export Plug-In . SVG Version: 6.00 Build 0)  -->
<svg version="1.1" id="Calque_1" xmlns="http://www.w3.org/2000/svg" xmlns:xlink="http://www.w3.org/1999/xlink" x="0px" y="0px"
	 viewBox="0 0 250 250" style="enable-background:new 0 0 250 250;" xml:space="preserve">
<style type="text/css">
	.st0{fill:#FFFFFF;}
	.st1{fill:#3178C5;}
</style>
<g>
	<path class="st0" d="M6,227.7C6,159.5,6,91.5,6,23.3C9.1,14.2,15.1,8.1,24.2,5c67.6,0,135.1,0,202.7,0c9.1,3.1,15.1,9.2,18.2,18.3
		c0,68.2,0,136.2,0,204.4c-3.1,9.2-9.1,15.2-18.2,18.3c-67.6,0-135.1,0-202.7,0C15.1,242.9,9.1,236.8,6,227.7z"/>
	<path class="st1" d="M0,231C0,160.3,0,89.7,0,19C3.2,9.5,9.5,3.2,19,0c70.7,0,141.3,0,212,0c9.5,3.2,15.8,9.5,19,19
		c0,70.7,0,141.3,0,212c-3.2,9.5-9.5,15.8-19,19c-70.7,0-141.3,0-212,0C9.5,246.8,3.2,240.5,0,231z M224.8,143
		c0-7.3,0.1-13.6-0.1-19.9c0-1.2-1.4-3.2-2.5-3.5c-17.5-4.8-35-5.9-51.6,2.4c-19.5,9.8-22.2,35.9-5.3,49.7
		c4.7,3.8,10.5,6.3,15.9,9.2c5.3,2.8,10.9,5.1,16,8.1c4.2,2.5,7.1,6.1,6.1,11.6s-5.3,7.4-10,8.4c-12.2,2.6-23.4-0.2-33.8-6.8
		c-1.3-0.8-2.6-1.6-4.5-2.7c0,7.2,0.2,13.6-0.1,19.9c-0.1,3.2,1,4.8,4,5.8c16.6,5.4,33.4,6.1,50.1,0.7c10.9-3.5,18.2-11,20.1-22.7
		c2.4-15.6-2.8-26.5-16.7-34.2c-7.6-4.2-15.7-7.4-23.3-11.4c-6.9-3.6-9.5-8.2-8.4-12.8c1.1-4.7,6.2-8.1,13.3-8.9
		c0.8-0.1,1.7-0.1,2.5-0.2C206.2,135.2,215.3,137.7,224.8,143z M144.7,119.1c-29.1,0-57.8,0-86.6,0c0,6.7,0,13,0,19.8
		c10.4,0,20.3,0,30.7,0c0,29.8,0,59.2,0,88.7c8.6,0,16.6,0,25.2,0c0-29.8,0-59.2,0-88.9c10.5,0,20.5,0,30.7,0
		C144.7,132,144.7,125.8,144.7,119.1z"/>
</g>
</svg>
