<?xml version="1.0" encoding="utf-8"?>
<!-- Generator: Adobe Illustrator 21.0.0, SVG Export Plug-In . SVG Version: 6.00 Build 0)  -->
<svg version="1.1" id="Calque_1" xmlns="http://www.w3.org/2000/svg" xmlns:xlink="http://www.w3.org/1999/xlink" x="0px" y="0px"
	 viewBox="0 0 231.4 204.5" style="enable-background:new 0 0 231.4 204.5;" xml:space="preserve">
<style type="text/css">
	.st0{fill:#F65E3D;}
	.st1{fill:#F8394A;}
</style>
<g>
	<path class="st0" d="M80.5,150.6c17.5,0,35,0,52.5,0c15.9,0,28.1,11.9,27.9,27.1c-0.1,15.1-12.3,26.8-28,26.8
		c-35.2,0-70.5,0-105.7,0c-14.4,0-25.8-10.6-27.1-24.9c-1.3-13.2,8.1-25.5,21.6-28.4c2.2-0.5,4.5-0.5,6.7-0.5
		C45.7,150.5,63.1,150.6,80.5,150.6z"/>
	<path class="st0" d="M80.2,53.9c-17.4,0-34.7,0-52.1,0c-15.9,0-28.1-11.8-28-27C0.1,11.7,12.3,0,28.3,0c35.1,0,70.2,0,105.3,0
		c14.5,0,25.8,10.5,27.2,25.2c1.3,12.9-8.4,25.4-21.9,28.2c-2.1,0.4-4.2,0.5-6.3,0.5C115.2,53.9,97.7,53.9,80.2,53.9z"/>
	<path class="st0" d="M150.9,130.5c-17.9,0-35.7,0.1-53.6,0c-14.2-0.1-25.1-10.3-26.7-24.8c-1.4-12.5,7.6-24.9,20.5-28.1
		c2-0.5,4.2-0.7,6.3-0.7c35.6,0,71.2-0.1,106.9,0c14.5,0,25.6,10.5,27,25c1.2,13.1-8.3,25.5-21.9,28.2c-2.2,0.4-4.5,0.5-6.7,0.5
		C185.4,130.6,168.2,130.5,150.9,130.5z"/>
	<path class="st1" d="M27.8,76.2c15.2,0,27.5,12.2,27.5,27.3c0.1,15.2-12.4,27.6-27.7,27.6c-15.3,0-27.6-12.5-27.5-27.7
		C0.2,88.3,12.5,76.2,27.8,76.2z"/>
	<path class="st0" d="M203.5,53.9c-15.2,0-27.4-12-27.4-26.9c0-15,12.4-27.1,27.8-27c15.3,0.1,27.6,12.4,27.5,27.3
		C231.2,42.1,218.8,53.9,203.5,53.9z"/>
	<path class="st0" d="M176.1,177.4c0-14.8,12.3-26.8,27.5-26.8c15.4,0,27.8,12.1,27.7,27c-0.1,14.9-12.6,26.9-27.9,26.9
		C188.3,204.4,176,192.2,176.1,177.4z"/>
</g>
</svg>
