<?xml version="1.0" encoding="utf-8"?>
<!-- Generator: Adobe Illustrator 21.0.0, SVG Export Plug-In . SVG Version: 6.00 Build 0)  -->
<svg version="1.1" id="Calque_1" xmlns="http://www.w3.org/2000/svg" xmlns:xlink="http://www.w3.org/1999/xlink" x="0px" y="0px"
	 viewBox="0 0 320 320" style="enable-background:new 0 0 320 320;" xml:space="preserve">
<style type="text/css">
	.st0{fill:#FFFFFF;}
	.st1{fill:#CC669A;}
</style>
<g>
	<circle class="st0" cx="159" cy="160" r="149"/>
	<path class="st1" d="M175,320c-10.3,0-20.7,0-31,0c-0.9-0.3-1.7-0.9-2.6-1c-14.8-1.6-29.2-5.2-42.8-11.2
		C50.2,286.7,18.8,250.7,5,199.7c-2.1-7.8-3.4-15.8-5-23.7c0-10.7,0-21.3,0-32c0.3-0.9,0.9-1.7,1-2.6c1.6-14.8,5.2-29.2,11.2-42.8
		C33.3,50.2,69.3,18.8,120.3,5c7.8-2.1,15.8-3.4,23.7-5c10.3,0,20.7,0,31,0c0.7,0.3,1.4,0.8,2.1,0.9c15.4,1.4,30.2,5.1,44.3,11.3
		c48.3,21.1,79.7,57.1,93.5,108.1c2.2,8.1,3.4,16.5,5,24.7c0,10.3,0,20.7,0,31c-0.3,0.9-0.9,1.7-1,2.6c-1.6,14.7-5.1,28.9-11,42.4
		c-21.2,48.8-57.4,80.3-108.8,94.1C191.3,317.2,183.1,318.4,175,320z M185.7,249.4c0.2,0.6,0.4,1.1,0.6,1.7c1.7-0.3,3.4-0.3,4.9-1
		c9.5-4.3,14.4-14.1,12.2-24.3c-2.9-14.1-12.2-22.6-25.2-27.3c-13.3-4.8-26.9-3.7-40.4-0.8c-2.7,0.6-4.5,0.3-6.6-1.7
		c-5.8-5.3-12-10.1-17.9-15.2c-7.2-6.2-14.9-11.9-21.3-18.8c-11.1-12-12.4-26.4-4-40.5c3-5.1,6.8-9.9,10.9-14.2
		c12.4-12.9,27.6-22,43.3-30.1c21.4-11.1,43.6-19,68.2-18.6c8.8,0.2,17.2,1.5,24.9,6.1c5.8,3.4,8.7,8.5,8.8,15.2
		c0.2,9-3.5,16.6-8.6,23.5c-15.3,20.3-36.4,30.7-60.9,34.7c-13.8,2.2-27.4,2-38.2-9c-0.6-0.6-1.8-0.5-2.7-0.8
		c-0.3,1-1.1,2.3-0.7,3.1c1.2,2.5,2.4,5.2,4.2,7.2c5.3,5.9,12.2,9.5,20,10.5c25,3.3,48.6-1.5,69.9-14.9
		c16.6-10.5,28.3-25.1,33.4-44.4c4.9-18.8-2.1-34.6-19.4-43.4c-9.5-4.9-19.8-6.8-30.4-7.4c-21.2-1.2-41.3,3.6-60.8,11.8
		C124.7,61.3,100.8,74.1,81.6,94c-6.5,6.7-12.4,14.5-17,22.7c-10.2,18.3-8.9,31.8,5.6,46.9c9.9,10.4,21.9,18.8,33.1,27.9
		c5.5,4.5,11.5,8.3,17.8,12.8c-1.8,1.1-3,1.7-4.1,2.4c-13.9,7.6-27.5,15.7-38.4,27.5c-7.4,8-10.8,17.5-9.7,28.4
		c1,9.6,6.9,16.2,15.5,17.6c28.3,4.6,56.2-17.2,58.5-46.2c0.7-8.3-0.5-16.8-0.8-25.9c7.3-2.7,16-2.3,24.5-0.9
		c10.7,1.8,20.7,5.3,27,15.1c5.8,9,4.1,17.8-4.3,24.2C188.1,247.4,186.9,248.4,185.7,249.4z"/>
	<path class="st1" d="M127.7,213.9c7.1,20.9-7.9,46.4-28.8,50.3c-8.2,1.5-12.7-2.4-10.6-10.4c1.4-5.3,3.8-10.7,7.1-15.1
		C103.6,227.3,115.2,220.2,127.7,213.9z"/>
</g>
</svg>
