<?xml version="1.0" encoding="utf-8"?>
<!-- Generator: Adobe Illustrator 21.0.0, SVG Export Plug-In . SVG Version: 6.00 Build 0)  -->
<svg version="1.1" id="Calque_1" xmlns="http://www.w3.org/2000/svg" xmlns:xlink="http://www.w3.org/1999/xlink" x="0px" y="0px"
	 viewBox="0 0 512 512" style="enable-background:new 0 0 512 512;" xml:space="preserve">
<style type="text/css">
	.st0{fill:#FFFFFF;}
</style>
<g>
	<path class="st0" d="M512,240c0,11,0,22,0,33c-0.3,1.4-0.7,2.9-0.9,4.3c-3.6,42.6-17,82.1-40.4,117.7
		c-42.6,64.6-102.3,102.8-179,114.1c-8.2,1.2-16.5,1.9-24.7,2.9c-7.3,0-14.7,0-22,0c-2-0.3-3.9-0.6-5.9-0.9
		c-16.4-2.6-33.3-3.5-49.1-8.1C87.3,472.9,26.1,404.2,4,300c-1.9-8.9-2.7-18-4-27c0-10.7,0-21.3,0-32c1.1-8.6,1.9-17.2,3.3-25.7
		c7.4-47.4,27-89.2,58.3-125.5c42-48.6,94.7-78.2,158.7-87c8.5-1.2,17.1-1.9,25.7-2.8c6.3,0,12.7,0,19,0c1.6,0.3,3.2,0.6,4.9,0.8
		c13.3,1.7,26.9,2.6,40,5.3c106.7,22.2,180.9,108.2,198.2,205.3C509.7,220.9,510.7,230.5,512,240z M37.2,255.1
		c-1.4,132.2,113.6,221.4,219.6,220.2c134.3-1.4,221.9-119.2,218.6-223.9C470.9,111.8,351,35.5,253.5,36.6
		C130.4,38.1,36.5,141.3,37.2,255.1z"/>
	<path class="st0" d="M317.9,269.5c-55.5,45.7-110.4,90.8-165.3,136c-0.3-0.3-0.7-0.7-1-1c0.9-1.5,1.8-3,2.7-4.4
		c28.1-42.5,56.1-85.1,84.3-127.5c1.2-1.8,3.7-3.7,5.6-3.7c23.8-0.1,47.6,0.1,71.5,0.2C316.1,269,316.6,269.2,317.9,269.5z"/>
	<path class="st0" d="M360.3,108c-17,25.7-34,51.3-51,77c-12,18.2-24,36.5-36.2,54.6c-1.2,1.7-3.8,3.5-5.7,3.5
		c-23.3,0.2-46.7,0.1-70,0c-0.8,0-1.5-0.1-3.6-0.3c55.8-45.9,110.6-91,165.4-136.1C359.6,107.1,359.9,107.5,360.3,108z"/>
</g>
</svg>
