<?xml version="1.0" encoding="utf-8"?>
<!-- Generator: Adobe Illustrator 21.0.0, SVG Export Plug-In . SVG Version: 6.00 Build 0)  -->
<svg version="1.1" id="Calque_1" xmlns="http://www.w3.org/2000/svg" xmlns:xlink="http://www.w3.org/1999/xlink" x="0px" y="0px"
	 viewBox="0 0 187.2 118.6" style="enable-background:new 0 0 187.2 118.6;" xml:space="preserve">
<style type="text/css">
	.st0{fill:#015A9C;}
	.st1{fill:#0066AF;}
	.st2{fill:#0394FE;}
	.st3{fill:#0276CB;}
	.st4{fill:#0286E7;}
</style>
<g>
	<polygon class="st0" points="68.1,118.5 0,0 136.5,0 	"/>
	<path class="st1" d="M102.3,59.2c11.4-19.7,22.8-39.5,34.2-59.2c0,0,34,59.1,33.7,59.2C147.6,59.2,125,59.2,102.3,59.2z"/>
	<path class="st2" d="M153.8,30.1c5.4-10,10.8-20,16.2-30c5.7,10.1,11.5,20.1,17.2,30.2L153.8,30.1z"/>
	<polygon class="st3" points="102.3,59.2 170.2,59.2 136.3,118.6 	"/>
	<path class="st4" d="M153.8,30.1c11.1,0,22.3,0.1,33.4,0.1c-5.7,9.7-11.3,19.3-17,29C164.7,49.5,159.3,39.8,153.8,30.1z"/>
</g>
</svg>
