<!-- Generated by IcoMoon.io -->
<svg version="1.1" xmlns="http://www.w3.org/2000/svg" width="32" height="32" viewBox="0 0 32 32">
<path d="M22.065 16l9.097-9.097c1.117-1.117 1.117-2.927 0-4.044l-2.022-2.022c-1.117-1.117-2.927-1.117-4.044 0l-9.097 9.097-9.097-9.097c-1.117-1.117-2.927-1.117-4.044 0l-2.022 2.022c-1.117 1.117-1.117 2.927 0 4.044l9.097 9.097-9.097 9.097c-1.117 1.117-1.117 2.927 0 4.044l2.022 2.022c1.117 1.117 2.927 1.117 4.044 0l9.097-9.097 9.097 9.097c1.117 1.117 2.927 1.117 4.044 0l2.022-2.022c1.117-1.117 1.117-2.927 0-4.044l-9.097-9.097z"></path>
</svg>
