<!-- Generated by IcoMoon.io -->
<svg version="1.1" xmlns="http://www.w3.org/2000/svg" width="32" height="32" viewBox="0 0 32 32">
<path d="M16 0c-0.589 0-1.067 0.478-1.067 1.067v2.75c-5.948 0.416-10.701 5.169-11.117 11.117h-2.75c-0.589 0-1.067 0.478-1.067 1.067s0.478 1.067 1.067 1.067h2.788c0.611 5.743 5.276 10.276 11.079 10.681v3.186c0 0.589 0.478 1.067 1.067 1.067s1.067-0.478 1.067-1.067v-3.224c5.599-0.596 10.047-5.044 10.643-10.643h3.224c0.589 0 1.067-0.478 1.067-1.067s-0.478-1.067-1.067-1.067h-3.186c-0.406-5.802-4.938-10.467-10.681-11.079v-2.788c0-0.589-0.478-1.067-1.067-1.067zM17.067 25.669v-5.402c0-0.589-0.478-1.067-1.067-1.067s-1.067 0.478-1.067 1.067v5.449c-4.682-0.395-8.443-4.026-9.038-8.649h5.838c0.589 0 1.067-0.478 1.067-1.067s-0.478-1.067-1.067-1.067h-5.884c0.407-4.829 4.256-8.677 9.084-9.084v5.884c0 0.589 0.478 1.067 1.067 1.067s1.067-0.478 1.067-1.067v-5.838c4.623 0.595 8.254 4.356 8.649 9.038h-5.449c-0.589 0-1.067 0.478-1.067 1.067s0.478 1.067 1.067 1.067h5.402c-0.576 4.478-4.124 8.026-8.602 8.602z"></path>
</svg>
