<!-- Generated by IcoMoon.io -->
<svg version="1.1" xmlns="http://www.w3.org/2000/svg" width="32" height="32" viewBox="0 0 32 32">
<path d="M31 10.415c0.2 0.544 0.031 1.15-0.4 1.538l-2.707 2.463c0.069 0.519 0.106 1.050 0.106 1.588s-0.038 1.069-0.106 1.588l2.707 2.463c0.431 0.388 0.6 0.994 0.4 1.538-0.275 0.744-0.606 1.457-0.988 2.144l-0.294 0.506c-0.413 0.688-0.875 1.338-1.381 1.95-0.369 0.45-0.981 0.6-1.532 0.425l-3.482-1.107c-0.838 0.644-1.763 1.181-2.751 1.588l-0.781 3.569c-0.125 0.569-0.563 1.019-1.138 1.113-0.863 0.144-1.75 0.219-2.657 0.219s-1.794-0.075-2.657-0.219c-0.575-0.094-1.013-0.544-1.138-1.113l-0.781-3.569c-0.988-0.406-1.913-0.944-2.751-1.588l-3.476 1.113c-0.55 0.175-1.163 0.019-1.532-0.425-0.506-0.613-0.969-1.263-1.381-1.95l-0.294-0.506c-0.381-0.688-0.713-1.4-0.988-2.144-0.2-0.544-0.031-1.15 0.4-1.538l2.707-2.463c-0.069-0.525-0.106-1.056-0.106-1.594s0.037-1.069 0.106-1.588l-2.707-2.463c-0.431-0.388-0.6-0.994-0.4-1.538 0.275-0.744 0.606-1.457 0.988-2.144l0.294-0.506c0.413-0.688 0.875-1.338 1.381-1.95 0.369-0.45 0.981-0.6 1.532-0.425l3.482 1.107c0.838-0.644 1.763-1.181 2.751-1.588l0.781-3.569c0.125-0.569 0.563-1.019 1.138-1.113 0.863-0.15 1.75-0.225 2.657-0.225s1.794 0.075 2.657 0.219c0.575 0.094 1.013 0.544 1.138 1.113l0.781 3.569c0.988 0.406 1.913 0.944 2.751 1.588l3.482-1.106c0.55-0.175 1.163-0.019 1.532 0.425 0.506 0.613 0.969 1.263 1.381 1.95l0.294 0.506c0.381 0.688 0.713 1.4 0.988 2.144zM16.003 21.004c2.762 0 5.001-2.239 5.001-5.001s-2.239-5.001-5.001-5.001v0c-2.762 0-5.001 2.239-5.001 5.001s2.239 5.001 5.001 5.001v0z"></path>
</svg>
