<!-- Generated by IcoMoon.io -->
<svg version="1.1" xmlns="http://www.w3.org/2000/svg" width="32" height="32" viewBox="0 0 32 32">
<path d="M30.852 17.148c0.634 0 1.148-0.514 1.148-1.148s-0.514-1.148-1.148-1.148h-2.679v-8.217h2.679c0.634 0 1.148-0.514 1.148-1.148s-0.514-1.148-1.148-1.148h-2.679v-3.19c0-0.634-0.514-1.148-1.148-1.148s-1.148 0.514-1.148 1.148v3.19h-8.217v-3.19c0-0.634-0.514-1.148-1.148-1.148s-1.148 0.514-1.148 1.148v3.19h-8.217v-3.19c0-0.634-0.514-1.148-1.148-1.148s-1.148 0.514-1.148 1.148v3.19h-3.7c-0.634 0-1.148 0.514-1.148 1.148s0.514 1.148 1.148 1.148h3.7v8.217h-3.7c-0.634 0-1.148 0.514-1.148 1.148s0.514 1.148 1.148 1.148h3.7v8.217h-3.7c-0.634 0-1.148 0.514-1.148 1.148s0.514 1.148 1.148 1.148h3.7v3.19c0 0.634 0.514 1.148 1.148 1.148s1.148-0.514 1.148-1.148v-3.19h8.217v3.19c0 0.634 0.514 1.148 1.148 1.148s1.148-0.514 1.148-1.148v-3.19h8.217v3.19c0 0.634 0.514 1.148 1.148 1.148s1.148-0.514 1.148-1.148v-3.19h2.679c0.634 0 1.148-0.514 1.148-1.148s-0.514-1.148-1.148-1.148h-2.679v-8.217h2.679zM25.876 6.635v8.217h-8.217v-8.217h8.217zM7.145 6.635h8.217v8.217h-8.217v-8.217zM7.145 25.365v-8.217h8.217v8.217h-8.217zM25.876 25.365h-8.217v-8.217h8.217v8.217z"></path>
</svg>
