<svg width="24" height="24" viewBox="0 0 24 24" fill="none" xmlns="http://www.w3.org/2000/svg">
<g clip-path="url(#clip0_11_59)">
<rect x="2" y="2" width="20" height="20" fill="#D9D9D9"/>
<path d="M22.2462 0H1.75385C0.738461 0 0 0.738461 0 1.75385V22.2462C0 23.1692 0.830769 24 1.75385 24H22.2462C23.2615 24 24 23.2615 24 22.2462V1.75385C24 0.738461 23.1692 0 22.2462 0ZM7.38462 20.3077H3.69231V9.23077H7.38462V20.3077ZM5.53846 7.75385C4.33846 7.75385 3.32308 6.73846 3.32308 5.53846C3.32308 4.33846 4.33846 3.32308 5.53846 3.32308C6.73846 3.32308 7.75385 4.33846 7.75385 5.53846C7.75385 6.73846 6.73846 7.75385 5.53846 7.75385ZM20.3077 20.3077H16.6154V14.7692C16.6154 13.2923 16.2462 11.8154 14.7692 11.8154C13.2923 11.8154 12.9231 13.2923 12.9231 14.7692V20.3077H9.23077V9.23077H12.9231V10.5231H13.1077C13.5692 9.6 14.7692 8.86154 16.1538 8.86154C19.5692 8.86154 20.3077 11.0769 20.3077 13.8462V20.3077Z" fill="#0B67C2"/>
</g>
<defs>
<clipPath id="clip0_11_59">
<rect width="24" height="24" fill="white"/>
</clipPath>
</defs>
</svg>
