<svg width="24" height="24" viewBox="0 0 24 24" fill="none" xmlns="http://www.w3.org/2000/svg">
<g clip-path="url(#clip0_11_40)">
<path d="M3.6 0H20.4C22.3875 0 24 1.6125 24 3.6V20.4C24 22.3875 22.3875 24 20.4 24H3.6C1.6125 24 0 22.3875 0 20.4V3.6C0 1.6125 1.6125 0 3.6 0Z" fill="#FC5656"/>
<path d="M19.1438 4.86563C17.6203 3.34688 15.9985 4.33125 14.9813 5.34375L5.38127 14.9438C4.36409 15.9609 3.30002 17.5078 4.90315 19.1063C6.50159 20.7047 8.04377 19.6406 9.06096 18.6234L18.661 9.02344C19.6781 8.01094 20.6625 6.38438 19.1438 4.86563ZM9.97034 4.47188L12.0047 6.50625L14.0719 4.43438C14.2125 4.29375 14.3531 4.1625 14.4985 4.04063C14.2828 2.94844 13.6594 1.95938 12 1.95938C10.3406 1.95938 9.71721 2.95313 9.50627 4.04531C9.66096 4.18125 9.81565 4.31719 9.97034 4.47188ZM14.0719 19.5703L12.0047 17.5031L9.97034 19.5328C9.81565 19.6875 9.66565 19.8328 9.51096 19.9641C9.74534 21.0797 10.4016 22.0969 12 22.0969C13.6031 22.0969 14.2641 21.0703 14.4938 19.9547C14.3531 19.8328 14.2125 19.7109 14.0719 19.5703ZM9.10784 9.39844H5.18909C3.75002 9.39844 1.90784 9.85313 1.90784 12C1.90784 13.6078 2.9344 14.2641 4.05471 14.4938C4.18596 14.3438 9.10784 9.39844 9.10784 9.39844ZM19.9594 9.50625C19.8375 9.64688 14.9016 14.6063 14.9016 14.6063H18.7641C20.2031 14.6063 22.0453 14.2641 22.0453 12C22.0453 10.3453 21.0563 9.72188 19.9594 9.50625ZM10.3922 8.11406L11.0906 7.41563L9.06096 5.38125C8.04377 4.36406 6.50159 3.3 4.89846 4.90313C3.72659 6.075 3.98909 7.21875 4.60784 8.14219C4.80002 8.12813 10.3922 8.11406 10.3922 8.11406ZM13.6125 15.8906L12.9094 16.5938L14.9813 18.6609C15.9985 19.6781 17.6203 20.6625 19.1391 19.1438C20.2735 18.0094 20.0156 16.8141 19.3875 15.8625C19.186 15.8766 13.6125 15.8906 13.6125 15.8906Z" fill="white"/>
</g>
<defs>
<clipPath id="clip0_11_40">
<rect width="24" height="24" fill="white"/>
</clipPath>
</defs>
</svg>
