<svg width="24" height="23" viewBox="0 0 24 23" fill="none" xmlns="http://www.w3.org/2000/svg">
<circle cx="12" cy="12" r="11" fill="#D9D9D9"/>
<g clip-path="url(#clip0_11_65)">
<path d="M11.9924 0H12.0838C14.2695 0 16.318 0.586674 18.0709 1.61036L18.016 1.58043C19.842 2.62806 21.3205 4.07978 22.3569 5.81585L22.3874 5.87272C23.4025 7.56689 24 9.60528 24 11.7784C24 16.9567 20.601 21.3567 15.876 22.9461L15.7907 22.9701C15.7297 22.988 15.6596 23 15.5864 23C15.4279 23 15.2816 22.9491 15.1627 22.8623H15.1658C15.0408 22.7516 14.9615 22.5929 14.9615 22.4163C14.9615 22.4103 14.9615 22.4073 14.9615 22.4043C14.9615 22.3744 14.9646 21.9823 14.9707 21.231C14.9768 20.4797 14.9798 19.7913 14.9798 19.1687C14.9859 19.0968 14.992 19.013 14.992 18.9292C14.992 18.1719 14.678 17.4835 14.1689 16.9896C14.7725 16.9297 15.3151 16.8339 15.8455 16.6963L15.7724 16.7112C16.3302 16.5586 16.818 16.355 17.2722 16.0976L17.2417 16.1126C17.7386 15.8432 18.1562 15.502 18.5007 15.0979L18.5068 15.0919C18.8696 14.6369 19.1531 14.0981 19.3268 13.5174L19.336 13.4845C19.5402 12.829 19.656 12.0777 19.656 11.2995C19.656 11.2575 19.656 11.2126 19.656 11.1678V11.1737C19.656 11.1528 19.656 11.1288 19.656 11.1049C19.656 9.91059 19.1866 8.82106 18.4184 8.00989L18.4214 8.01288C18.5861 7.59084 18.6806 7.10593 18.6806 6.59708C18.6806 5.97449 18.5403 5.38782 18.2873 4.86101L18.2995 4.88496C18.1867 4.864 18.0587 4.85203 17.9276 4.85203C17.6014 4.85203 17.2935 4.92686 17.0222 5.05856L17.0344 5.05258C16.4796 5.25312 16.0071 5.48061 15.559 5.74701L15.5956 5.72605L14.9981 6.09721C14.0988 5.84578 13.0654 5.69911 11.9985 5.69911C10.9315 5.69911 9.89813 5.84578 8.9196 6.11817L8.99886 6.10021C8.8312 5.98647 8.61171 5.84878 8.33431 5.68415C7.97155 5.48061 7.54173 5.28006 7.09361 5.11543L7.0296 5.09448C6.74305 4.94781 6.40467 4.86101 6.04496 4.86101C5.92303 4.86101 5.80414 4.86999 5.69135 4.89094L5.70354 4.88795C5.46272 5.39081 5.31945 5.97749 5.31945 6.60008C5.31945 7.10893 5.41395 7.59682 5.58771 8.04581L5.57856 8.01887C4.81341 8.82704 4.34396 9.91359 4.34396 11.1109C4.34396 11.1348 4.34396 11.1588 4.34396 11.1827V11.1797C4.34396 11.2156 4.34396 11.2605 4.34396 11.3054C4.34396 12.0807 4.4598 12.829 4.67928 13.5354L4.66404 13.4815C4.84695 14.0981 5.1274 14.6339 5.4932 15.1039L5.48406 15.0919C5.82853 15.5079 6.24616 15.8522 6.71866 16.1096L6.74 16.1215C7.16068 16.364 7.65147 16.5675 8.1636 16.7082L8.20932 16.7202C8.66353 16.8399 9.2092 16.9387 9.764 16.9926L9.80973 16.9956C9.38905 17.4056 9.1086 17.9534 9.04458 18.564V18.576C8.84339 18.6718 8.60866 18.7526 8.36174 18.8035L8.3404 18.8065C8.09044 18.8544 7.80389 18.8843 7.51124 18.8843C7.4899 18.8843 7.46856 18.8843 7.44723 18.8843H7.45027C7.06618 18.8753 6.71256 18.7526 6.41992 18.5521L6.42601 18.555C6.06325 18.3066 5.77061 17.9863 5.56637 17.6092L5.56027 17.5942C5.36822 17.271 5.11216 17.0075 4.81036 16.801L4.80122 16.795C4.58174 16.6334 4.32262 16.5077 4.04522 16.4299L4.02998 16.4269L3.71904 16.382C3.6977 16.379 3.67027 16.379 3.64283 16.379C3.50565 16.379 3.37762 16.4059 3.25873 16.4538L3.26483 16.4508C3.18252 16.4957 3.15509 16.5556 3.18557 16.6274C3.22215 16.7112 3.27093 16.7801 3.3258 16.8429C3.38677 16.9118 3.45383 16.9716 3.52699 17.0255L3.53004 17.0285L3.63978 17.1063C3.91719 17.247 4.14277 17.4446 4.31652 17.684L4.31957 17.69C4.50553 17.9175 4.67014 18.1749 4.80122 18.4473L4.81036 18.4712L4.96583 18.8244C5.09691 19.2106 5.33774 19.5308 5.64867 19.7643L5.65477 19.7673C5.94742 19.9918 6.30103 20.1534 6.68513 20.2253L6.70037 20.2283C7.0235 20.2881 7.3954 20.327 7.7795 20.336H7.7856C7.82827 20.339 7.8801 20.339 7.93192 20.339C8.18798 20.339 8.43491 20.3181 8.67878 20.2792L8.65744 20.2642L9.01715 20.2043C9.01715 20.5934 9.0202 21.0454 9.02629 21.5632C9.03239 22.0811 9.03544 22.3594 9.03544 22.3984V22.4103C9.03544 22.5869 8.95618 22.7456 8.8312 22.8563C8.71536 22.9401 8.56903 22.994 8.41052 22.994C8.33736 22.994 8.26724 22.982 8.20323 22.9641H8.20932C3.39591 21.3477 0 16.9477 0 11.7694C0 9.5963 0.597485 7.56091 1.64004 5.81286L1.60955 5.86973C2.67649 4.07678 4.15496 2.62507 5.92303 1.60737L5.98095 1.57743C7.67585 0.586674 9.71828 0 11.904 0H11.9985H11.9924ZM4.54211 16.9207C4.57259 16.8489 4.53601 16.789 4.43236 16.7382C4.32872 16.7082 4.26165 16.7172 4.22812 16.7681C4.19764 16.8399 4.23422 16.8998 4.33786 16.9507C4.43236 17.0135 4.49943 17.0046 4.54211 16.9207ZM5.0268 17.4446C5.09996 17.3937 5.08777 17.3129 4.99632 17.1991C4.89267 17.1063 4.81036 17.0914 4.74635 17.1542C4.67319 17.2051 4.68538 17.2859 4.77683 17.3997C4.88048 17.4984 4.96278 17.5134 5.0268 17.4446ZM5.4932 18.133C5.5877 18.0612 5.5877 17.9654 5.4932 17.8427C5.4109 17.711 5.32249 17.678 5.22799 17.7499C5.13349 17.8008 5.13349 17.8935 5.22799 18.0252C5.32249 18.1599 5.4109 18.1959 5.4932 18.133ZM6.14861 18.7795C6.23092 18.6987 6.20958 18.5999 6.08764 18.4892C5.96266 18.3665 5.85901 18.3515 5.77671 18.4443C5.68221 18.5251 5.70354 18.6239 5.83767 18.7346C5.96266 18.8574 6.0663 18.8723 6.14861 18.7765V18.7795ZM7.03874 19.1627C7.06922 19.0489 7.00216 18.9681 6.8345 18.9172C6.67903 18.8753 6.57843 18.9112 6.5388 19.025C6.49613 19.1387 6.56624 19.2136 6.74305 19.2555C6.89851 19.3153 6.99911 19.2854 7.03874 19.1627ZM8.02337 19.2375C8.02337 19.1058 7.93497 19.0489 7.75816 19.0699C7.5905 19.0699 7.50819 19.1268 7.50819 19.2375C7.50819 19.3692 7.5966 19.4261 7.7734 19.4051C7.94106 19.4081 8.02337 19.3512 8.02337 19.2375ZM8.93179 19.0849C8.91045 18.9711 8.81595 18.9262 8.65134 18.9472C8.48368 18.9771 8.41052 19.0549 8.43186 19.1776C8.45319 19.3004 8.54769 19.3423 8.71231 19.3004C8.87997 19.2585 8.95313 19.1866 8.93179 19.0849Z" fill="black"/>
</g>
<defs>
<clipPath id="clip0_11_65">
<rect width="24" height="23" fill="white"/>
</clipPath>
</defs>
</svg>
